<?xml version="1.0" encoding="UTF-8"?>
<svg width="100px" height="100px" viewBox="0 0 100 100" version="1.1" xmlns="http://www.w3.org/2000/svg" xmlns:xlink="http://www.w3.org/1999/xlink">
    <!-- Generator: Sketch 64 (93537) - https://sketch.com -->
    <title>Artboard</title>
    <desc>Created with Sketch.</desc>
    <g id="Artboard" stroke="none" stroke-width="1" fill="none" fill-rule="evenodd">
        <path d="M99.3890657,77.0216523 L86.8891308,64.5827038 C86.0745517,63.772099 84.7578919,63.772099 83.9433128,64.5827038 C83.1287337,65.3933086 83.1287337,66.7035445 83.9433128,67.5141493 L92.8870162,76.414217 L47.9560002,76.414217 C39.7185431,76.4266559 31.7935844,73.1344809 25.8415321,67.024884 C13.6082625,54.4719118 13.6082625,34.0906946 25.8415321,21.533576 C38.0414685,9.01584746 57.7913657,9.01584746 69.9913021,21.533576 C82.2266551,34.0906946 82.2266551,54.4719118 69.9913021,67.024884 C69.189223,67.8458546 69.2100562,69.1581637 70.0350519,69.9563295 C70.8621309,70.7544954 72.1787907,70.7337638 72.9808699,69.9107201 C86.7828813,55.7489771 86.7828813,32.811556 72.9808699,18.64774 C59.1476086,4.45075335 36.6873089,4.45075335 22.8519643,18.64774 C9.04995286,32.811556 9.04995286,55.7489771 22.8519643,69.9107201 C25.4290342,72.5581429 28.3415191,74.7308126 31.4748361,76.414217 L2.08332248,76.414217 C0.933328472,76.414217 0,77.3409187 0,78.4873751 C0,79.6338315 0.933328472,80.5605332 2.08332248,80.5605332 L92.8870162,80.5605332 L83.9433128,89.4606008 C83.1287337,90.2712057 83.1287337,91.5814416 83.9433128,92.3920464 C84.7578919,93.2026512 86.0745517,93.2026512 86.8891308,92.3920464 L99.3890657,79.9530978 C100.203645,79.142493 100.203645,77.8322571 99.3890657,77.0216523" id="AGILE" fill="#2A8D51"></path>
    </g>
</svg>