<svg width="71" height="71" viewBox="0 0 71 71" fill="none" xmlns="http://www.w3.org/2000/svg">
<g filter="url(#filter0_d)">
<rect x="7.58105" y="0.568848" width="45.9776" height="45.9776" rx="12" fill="#333173"/>
<g clip-path="url(#clip0)">
<path d="M29.9722 35.0518H18.0305C16.8763 35.0518 15.9407 34.1161 15.9407 32.962V30.8721H31.9796L29.9722 35.0518Z" fill="#D3DCFB"/>
<path d="M43.1112 18.3327V27.1125V32.9618H18.0305C16.8763 32.9618 15.9407 32.0261 15.9407 30.872V18.3327L30.5709 13.1079L43.1112 18.3327Z" fill="#EBF5FC"/>
<path d="M19.6313 22.5125H18.5211C18.2506 22.5125 18.0312 22.2932 18.0312 22.0227V20.9124C18.0312 20.6419 18.2506 20.4226 18.5211 20.4226H19.6313C19.9018 20.4226 20.1211 20.6419 20.1211 20.9124V22.0227C20.1211 22.2932 19.9018 22.5125 19.6313 22.5125Z" fill="#3C58A0"/>
<path d="M23.811 22.5125H22.7008C22.4303 22.5125 22.2109 22.2932 22.2109 22.0227V20.9124C22.2109 20.6419 22.4303 20.4226 22.7008 20.4226H23.811C24.0815 20.4226 24.3008 20.6419 24.3008 20.9124V22.0227C24.3008 22.2932 24.0815 22.5125 23.811 22.5125Z" fill="#3C58A0"/>
<path d="M27.9904 22.5125H26.8802C26.6097 22.5125 26.3904 22.2932 26.3904 22.0227V20.9124C26.3904 20.6419 26.6097 20.4226 26.8802 20.4226H27.9904C28.2609 20.4226 28.4802 20.6419 28.4802 20.9124V22.0227C28.4802 22.2932 28.261 22.5125 27.9904 22.5125Z" fill="#3C58A0"/>
<path d="M32.1709 22.5125H31.0606C30.7901 22.5125 30.5708 22.2932 30.5708 22.0227V20.9124C30.5708 20.6419 30.7901 20.4226 31.0606 20.4226H32.1709C32.4414 20.4226 32.6607 20.6419 32.6607 20.9124V22.0227C32.6607 22.2932 32.4414 22.5125 32.1709 22.5125Z" fill="#3C58A0"/>
<path d="M36.3498 22.5125H35.2396C34.9691 22.5125 34.7498 22.2932 34.7498 22.0227V20.9124C34.7498 20.6419 34.9691 20.4226 35.2396 20.4226H36.3498C36.6203 20.4226 36.8396 20.6419 36.8396 20.9124V22.0227C36.8396 22.2932 36.6204 22.5125 36.3498 22.5125Z" fill="#3C58A0"/>
<path d="M40.5295 22.5125H39.4193C39.1488 22.5125 38.9294 22.2932 38.9294 22.0227V20.9124C38.9294 20.6419 39.1488 20.4226 39.4193 20.4226H40.5295C40.8 20.4226 41.0193 20.6419 41.0193 20.9124V22.0227C41.0193 22.2932 40.8 22.5125 40.5295 22.5125Z" fill="#3C58A0"/>
<path d="M19.6313 26.6922H18.5211C18.2506 26.6922 18.0312 26.4728 18.0312 26.2023V25.0921C18.0312 24.8216 18.2506 24.6023 18.5211 24.6023H19.6313C19.9018 24.6023 20.1211 24.8216 20.1211 25.0921V26.2023C20.1211 26.4729 19.9018 26.6922 19.6313 26.6922Z" fill="#3C58A0"/>
<path d="M23.811 26.6922H22.7008C22.4303 26.6922 22.2109 26.4728 22.2109 26.2023V25.0921C22.2109 24.8216 22.4303 24.6023 22.7008 24.6023H23.811C24.0815 24.6023 24.3008 24.8216 24.3008 25.0921V26.2023C24.3008 26.4729 24.0815 26.6922 23.811 26.6922Z" fill="#3C58A0"/>
<path d="M27.9904 26.6922H26.8802C26.6097 26.6922 26.3904 26.4728 26.3904 26.2023V25.0921C26.3904 24.8216 26.6097 24.6023 26.8802 24.6023H27.9904C28.2609 24.6023 28.4802 24.8216 28.4802 25.0921V26.2023C28.4802 26.4729 28.261 26.6922 27.9904 26.6922Z" fill="#3C58A0"/>
<path d="M32.6607 26.6922V25.1247C32.6607 24.8362 32.4268 24.6023 32.1382 24.6023H31.0933C30.8047 24.6023 30.5708 24.8362 30.5708 25.1247V26.1697C30.5708 26.4583 30.8048 26.6922 31.0933 26.6922H32.6607Z" fill="#3C58A0"/>
<path d="M19.6313 30.8716H18.5211C18.2506 30.8716 18.0312 30.6523 18.0312 30.3818V29.2716C18.0312 29.0011 18.2506 28.7817 18.5211 28.7817H19.6313C19.9018 28.7817 20.1211 29.0011 20.1211 29.2716V30.3818C20.1211 30.6523 19.9018 30.8716 19.6313 30.8716Z" fill="#3C58A0"/>
<path d="M23.811 30.8716H22.7008C22.4303 30.8716 22.2109 30.6523 22.2109 30.3818V29.2716C22.2109 29.0011 22.4303 28.7817 22.7008 28.7817H23.811C24.0815 28.7817 24.3008 29.0011 24.3008 29.2716V30.3818C24.3008 30.6523 24.0815 30.8716 23.811 30.8716Z" fill="#3C58A0"/>
<path d="M27.9904 30.8716H26.8802C26.6097 30.8716 26.3904 30.6523 26.3904 30.3818V29.2716C26.3904 29.0011 26.6097 28.7817 26.8802 28.7817H27.9904C28.2609 28.7817 28.4802 29.0011 28.4802 29.2716V30.3818C28.4802 30.6523 28.261 30.8716 27.9904 30.8716Z" fill="#3C58A0"/>
<path d="M40.515 20.4226H39.4343C39.3689 20.4226 39.3066 20.4355 39.2493 20.4581C39.4363 20.5319 39.5688 20.7139 39.5688 20.9272V22.0078C39.5688 22.2212 39.4363 22.4031 39.2493 22.477C39.3066 22.4996 39.3689 22.5125 39.4343 22.5125H40.515C40.7937 22.5125 41.0196 22.2865 41.0196 22.0079V20.9272C41.0195 20.6485 40.7936 20.4226 40.515 20.4226Z" fill="#2A428C"/>
<path d="M36.3345 20.4226H35.2539C35.1885 20.4226 35.1262 20.4355 35.0688 20.4581C35.2559 20.5319 35.3884 20.7139 35.3884 20.9272V22.0078C35.3884 22.2212 35.2558 22.4031 35.0688 22.477C35.1262 22.4996 35.1885 22.5125 35.2539 22.5125H36.3345C36.6132 22.5125 36.8391 22.2865 36.8391 22.0079V20.9272C36.8391 20.6485 36.6132 20.4226 36.3345 20.4226Z" fill="#2A428C"/>
<path d="M32.1556 20.4226H31.0749C31.0095 20.4226 30.9473 20.4355 30.8899 20.4581C31.0769 20.5319 31.2095 20.7139 31.2095 20.9272V22.0078C31.2095 22.2212 31.0769 22.4031 30.8899 22.477C30.9473 22.4996 31.0095 22.5125 31.0749 22.5125H32.1556C32.4343 22.5125 32.6602 22.2865 32.6602 22.0079V20.9272C32.6602 20.6485 32.4342 20.4226 32.1556 20.4226Z" fill="#2A428C"/>
<path d="M27.9757 20.4226H26.895C26.8296 20.4226 26.7673 20.4355 26.71 20.4581C26.897 20.5319 27.0296 20.7139 27.0296 20.9272V22.0078C27.0296 22.2212 26.897 22.4031 26.71 22.477C26.7673 22.4996 26.8296 22.5125 26.895 22.5125H27.9757C28.2544 22.5125 28.4803 22.2865 28.4803 22.0079V20.9272C28.4802 20.6485 28.2544 20.4226 27.9757 20.4226Z" fill="#2A428C"/>
<path d="M23.7962 20.4226H22.7155C22.6502 20.4226 22.5879 20.4355 22.5305 20.4581C22.7176 20.5319 22.8501 20.7139 22.8501 20.9272V22.0078C22.8501 22.2212 22.7175 22.4031 22.5305 22.477C22.5879 22.4996 22.6502 22.5125 22.7155 22.5125H23.7962C24.0749 22.5125 24.3008 22.2865 24.3008 22.0079V20.9272C24.3008 20.6485 24.0749 20.4226 23.7962 20.4226Z" fill="#2A428C"/>
<path d="M19.6165 20.4226H18.5359C18.4705 20.4226 18.4082 20.4355 18.3508 20.4581C18.5379 20.5319 18.6704 20.7139 18.6704 20.9272V22.0078C18.6704 22.2212 18.5379 22.4031 18.3508 22.477C18.4082 22.4996 18.4705 22.5125 18.5359 22.5125H19.6165C19.8952 22.5125 20.1212 22.2865 20.1212 22.0079V20.9272C20.1211 20.6485 19.8952 20.4226 19.6165 20.4226Z" fill="#2A428C"/>
<path d="M19.6165 24.6023H18.5359C18.4705 24.6023 18.4082 24.6152 18.3508 24.6377C18.5379 24.7116 18.6704 24.8936 18.6704 25.1069V26.1876C18.6704 26.4009 18.5379 26.5829 18.3508 26.6567C18.4082 26.6794 18.4705 26.6922 18.5359 26.6922H19.6165C19.8952 26.6922 20.1212 26.4663 20.1212 26.1877V25.1069C20.1211 24.8282 19.8952 24.6023 19.6165 24.6023Z" fill="#2A428C"/>
<path d="M19.6165 28.7822H18.5359C18.4705 28.7822 18.4082 28.7951 18.3508 28.8177C18.5379 28.8915 18.6704 29.0735 18.6704 29.2868V30.3675C18.6704 30.5808 18.5379 30.7628 18.3508 30.8366C18.4082 30.8593 18.4705 30.8722 18.5359 30.8722H19.6165C19.8952 30.8722 20.1212 30.6462 20.1212 30.3676V29.2869C20.1211 29.0081 19.8952 28.7822 19.6165 28.7822Z" fill="#2A428C"/>
<path d="M23.7962 24.6023H22.7155C22.6502 24.6023 22.5879 24.6152 22.5305 24.6377C22.7176 24.7116 22.8501 24.8936 22.8501 25.1069V26.1876C22.8501 26.4009 22.7175 26.5829 22.5305 26.6567C22.5879 26.6794 22.6502 26.6922 22.7155 26.6922H23.7962C24.0749 26.6922 24.3008 26.4663 24.3008 26.1877V25.1069C24.3008 24.8282 24.0749 24.6023 23.7962 24.6023Z" fill="#2A428C"/>
<path d="M23.7962 28.7822H22.7155C22.6502 28.7822 22.5879 28.7951 22.5305 28.8177C22.7176 28.8915 22.8501 29.0735 22.8501 29.2868V30.3675C22.8501 30.5808 22.7175 30.7628 22.5305 30.8366C22.5879 30.8593 22.6502 30.8722 22.7155 30.8722H23.7962C24.0749 30.8722 24.3008 30.6462 24.3008 30.3676V29.2869C24.3008 29.0081 24.0749 28.7822 23.7962 28.7822Z" fill="#2A428C"/>
<path d="M27.9757 24.6023H26.895C26.8296 24.6023 26.7673 24.6152 26.71 24.6377C26.897 24.7116 27.0296 24.8936 27.0296 25.1069V26.1876C27.0296 26.4009 26.897 26.5829 26.71 26.6567C26.7673 26.6794 26.8296 26.6922 26.895 26.6922H27.9757C28.2544 26.6922 28.4803 26.4663 28.4803 26.1877V25.1069C28.4802 24.8282 28.2544 24.6023 27.9757 24.6023Z" fill="#2A428C"/>
<path d="M32.66 26.6922V25.1069C32.66 24.8282 32.434 24.6023 32.1553 24.6023H31.0747C31.0093 24.6023 30.947 24.6152 30.8896 24.6377C31.0767 24.7116 31.2093 24.8936 31.2093 25.1069V26.1876C31.2093 26.4009 31.0767 26.5829 30.8896 26.6567C30.947 26.6794 31.0093 26.6922 31.0747 26.6922H32.66V26.6922Z" fill="#2A428C"/>
<path d="M27.9757 28.7822H26.895C26.8296 28.7822 26.7673 28.7951 26.71 28.8177C26.897 28.8915 27.0296 29.0735 27.0296 29.2868V30.3675C27.0296 30.5808 26.897 30.7628 26.71 30.8366C26.7673 30.8593 26.8296 30.8722 26.895 30.8722H27.9757C28.2544 30.8722 28.4803 30.6462 28.4803 30.3676V29.2869C28.4802 29.0081 28.2544 28.7822 27.9757 28.7822Z" fill="#2A428C"/>
<path d="M41.6597 17.728V27.1128V32.9621H43.1114V27.1128V18.3329L41.6597 17.728Z" fill="#D3DCFB"/>
<path d="M43.1112 18.3331V13.1084C43.1112 11.9542 42.1756 11.0186 41.0214 11.0186H18.0305C16.8763 11.0186 15.9407 11.9542 15.9407 13.1084V18.3331H43.1112Z" fill="#FF4155"/>
<path d="M22.5255 13.5808H21.1652C20.9039 13.5808 20.6921 13.3691 20.6921 13.1078C20.6921 12.8466 20.9039 12.6348 21.1652 12.6348H22.5255C22.7868 12.6348 22.9985 12.8466 22.9985 13.1078C22.9985 13.3691 22.7867 13.5808 22.5255 13.5808Z" fill="#E80054"/>
<path d="M25.8673 13.5808H24.507C24.2457 13.5808 24.0339 13.3691 24.0339 13.1078C24.0339 12.8466 24.2457 12.6348 24.507 12.6348H25.8673C26.1286 12.6348 26.3403 12.8466 26.3403 13.1078C26.3403 13.3691 26.1286 13.5808 25.8673 13.5808Z" fill="#E80054"/>
<path d="M34.5426 13.5808H33.1823C32.921 13.5808 32.7092 13.3691 32.7092 13.1078C32.7092 12.8466 32.921 12.6348 33.1823 12.6348H34.5426C34.8039 12.6348 35.0157 12.8466 35.0157 13.1078C35.0157 13.3691 34.8039 13.5808 34.5426 13.5808Z" fill="#E80054"/>
<path d="M37.8847 13.5808H36.5243C36.263 13.5808 36.0513 13.3691 36.0513 13.1078C36.0513 12.8466 36.2631 12.6348 36.5243 12.6348H37.8847C38.146 12.6348 38.3577 12.8466 38.3577 13.1078C38.3577 13.3691 38.1459 13.5808 37.8847 13.5808Z" fill="#E80054"/>
<path d="M24.8225 12.8468C24.8225 13.5681 24.2377 14.1529 23.5164 14.1529C22.795 14.1529 22.2102 13.5681 22.2102 12.8468V10.2344C22.2101 9.513 22.7949 8.92822 23.5163 8.92822C24.2377 8.92822 24.8225 9.513 24.8225 10.2344V12.8468H24.8225Z" fill="#EBF5FC"/>
<path d="M36.8402 12.8468C36.8402 13.5681 36.2554 14.1529 35.534 14.1529C34.8126 14.1529 34.2278 13.5681 34.2278 12.8468V10.2344C34.2278 9.513 34.8126 8.92822 35.5339 8.92822C36.2553 8.92822 36.8401 9.513 36.8401 10.2344V12.8468H36.8402Z" fill="#EBF5FC"/>
<path d="M35.5343 8.92822C35.2661 8.92822 35.017 9.00929 34.8096 9.14791C35.1601 9.38216 35.3911 9.78118 35.3911 10.2344V12.8468C35.3911 13.3 35.1601 13.699 34.8096 13.9333C35.0169 14.0719 35.2661 14.153 35.5343 14.153C36.2556 14.153 36.8404 13.5682 36.8404 12.8468V10.2344C36.8405 9.513 36.2557 8.92822 35.5343 8.92822V8.92822Z" fill="#D3DCFB"/>
<path d="M23.5159 8.92822C23.2478 8.92822 22.9987 9.00929 22.7913 9.14791C23.1418 9.38216 23.3728 9.78118 23.3728 10.2344V12.8468C23.3728 13.3 23.1418 13.699 22.7913 13.9333C22.9986 14.0719 23.2478 14.153 23.5159 14.153C24.2373 14.153 24.8221 13.5682 24.8221 12.8468V10.2344C24.8222 9.513 24.2374 8.92822 23.5159 8.92822V8.92822Z" fill="#D3DCFB"/>
<path d="M41.0211 11.0183H39.5698C40.724 11.0183 41.6596 11.9539 41.6596 13.1081V18.3329H43.1108V13.1082C43.1109 11.954 42.1752 11.0183 41.0211 11.0183Z" fill="#E80054"/>
<path d="M15.9404 15.7698H43.1111V16.7159H15.9404V15.7698Z" fill="#E80054"/>
<path d="M37.3632 40.2765C41.6915 40.2765 45.2003 36.7677 45.2003 32.4394C45.2003 28.1111 41.6915 24.6023 37.3632 24.6023C33.0349 24.6023 29.5261 28.1111 29.5261 32.4394C29.5261 36.7677 33.0349 40.2765 37.3632 40.2765Z" fill="#4FABF7"/>
<path d="M37.3629 38.1868C40.537 38.1868 43.1102 35.6137 43.1102 32.4396C43.1102 29.2655 40.537 26.6924 37.3629 26.6924C34.1888 26.6924 31.6157 29.2655 31.6157 32.4396C31.6157 35.6137 34.1888 38.1868 37.3629 38.1868Z" fill="#EBF5FC"/>
<path d="M37.3624 31.8675C37.1011 31.8675 36.8894 31.6558 36.8894 31.3945V28.7821C36.8894 28.5209 37.1012 28.3091 37.3624 28.3091C37.6238 28.3091 37.8355 28.5209 37.8355 28.7821V31.3945C37.8355 31.6558 37.6237 31.8675 37.3624 31.8675Z" fill="#3C58A0"/>
<path d="M39.9751 32.9124H38.4076C38.1463 32.9124 37.9346 32.7006 37.9346 32.4393C37.9346 32.1781 38.1464 31.9663 38.4076 31.9663H39.9751C40.2364 31.9663 40.4481 32.1781 40.4481 32.4393C40.4481 32.7006 40.2364 32.9124 39.9751 32.9124Z" fill="#3C58A0"/>
<path d="M37.3629 24.6023C37.1183 24.6023 36.8764 24.6141 36.6375 24.636C40.6257 25.0021 43.7492 28.3557 43.7492 32.4394C43.7492 36.5231 40.6256 39.8767 36.6375 40.2427C36.8764 40.2647 37.1182 40.2765 37.3628 40.2765C41.6911 40.2765 45.1999 36.7677 45.1999 32.4394C45.1999 28.1111 41.6911 24.6023 37.3629 24.6023Z" fill="#1886EA"/>
<path d="M37.3626 26.6924C37.117 26.6924 36.8751 26.7079 36.6377 26.7378C39.4696 27.0942 41.66 29.511 41.66 32.4396C41.66 35.3682 39.4696 37.785 36.6377 38.1414C36.8751 38.1713 37.117 38.1868 37.3626 38.1868C40.5366 38.1868 43.1098 35.6137 43.1098 32.4396C43.1098 29.2655 40.5366 26.6924 37.3626 26.6924Z" fill="#D3DCFB"/>
<path d="M37.3628 33.4845C37.94 33.4845 38.4078 33.0166 38.4078 32.4395C38.4078 31.8624 37.94 31.3945 37.3628 31.3945C36.7857 31.3945 36.3179 31.8624 36.3179 32.4395C36.3179 33.0166 36.7857 33.4845 37.3628 33.4845Z" fill="#FFDD40"/>
</g>
</g>
<defs>
<filter id="filter0_d" x="0.581055" y="0.568848" width="69.9776" height="69.9776" filterUnits="userSpaceOnUse" color-interpolation-filters="sRGB">
<feFlood flood-opacity="0" result="BackgroundImageFix"/>
<feColorMatrix in="SourceAlpha" type="matrix" values="0 0 0 0 0 0 0 0 0 0 0 0 0 0 0 0 0 0 127 0"/>
<feOffset dx="5" dy="12"/>
<feGaussianBlur stdDeviation="6"/>
<feColorMatrix type="matrix" values="0 0 0 0 0.294469 0 0 0 0 0.283889 0 0 0 0 0.608333 0 0 0 1 0"/>
<feBlend mode="normal" in2="BackgroundImageFix" result="effect1_dropShadow"/>
<feBlend mode="normal" in="SourceGraphic" in2="effect1_dropShadow" result="shape"/>
</filter>
<clipPath id="clip0">
<rect width="31.3483" height="31.3483" fill="white" transform="translate(14.896 8.92822)"/>
</clipPath>
</defs>
</svg>
