<?xml version="1.0" encoding="UTF-8"?>
<svg width="100px" height="100px" viewBox="0 0 100 100" version="1.1" xmlns="http://www.w3.org/2000/svg" xmlns:xlink="http://www.w3.org/1999/xlink">
    <!-- Generator: Sketch 64 (93537) - https://sketch.com -->
    <title>Artboard</title>
    <desc>Created with Sketch.</desc>
    <g id="Artboard" stroke="none" stroke-width="1" fill="none" fill-rule="evenodd">
        <path d="M59.173913,46.1125832 L59.173913,28.6434434 C59.173913,26.2543355 57.2847826,23.8566104 54.9543478,23.2749521 L48.3043478,21.6183029 L48.3043478,19.3886124 L48.3043478,17.3915853 L56.3152174,19.3886124 L59.173913,20.1016825 L70.0434783,22.8117797 L88.673913,27.4542752 C89.076087,27.5555268 89.6086957,28.2298197 89.6086957,28.6434434 L89.6086957,53.6978392 L70.0434783,48.8226804 L59.173913,46.1125832 Z M54.826087,53.6978392 L48.3043478,52.0735044 L43.9565217,50.9898964 L33.0869565,48.2797992 L24.3913043,46.1125832 L14.4565217,43.6373037 C14.0543478,43.536052 13.5217391,42.8596049 13.5217391,42.4481355 L13.5217391,19.3886124 L13.5217391,17.3915853 L21.5326087,19.3886124 L24.3913043,20.1016825 L33.0869565,22.2688985 L43.9565217,24.9768414 L48.3043478,26.0604494 L53.8913043,27.4542752 C54.2934783,27.5555268 54.826087,28.2298197 54.826087,28.6434434 L54.826087,45.0289752 L54.826087,49.473276 L54.826087,53.6978392 Z M89.7369565,23.2749521 L70.0434783,18.3674788 L61.3478261,16.1981085 L59.173913,15.6573817 L48.3043478,12.9472845 L48.3043478,8.61716108 C48.3043478,8.42542924 48.2413043,8.25524031 48.1934783,8.07858851 C49.5478261,7.34828411 50.4782609,5.94368685 50.4782609,4.30858054 C50.4782609,3.46409875 50.223913,2.68424568 49.8,2.01856998 C49.0304348,0.810013141 47.6804348,0 46.1304348,0 C44.5804348,0 43.2304348,0.810013141 42.4608696,2.01856998 C42.0369565,2.68424568 41.7826087,3.46409875 41.7826087,4.30858054 C41.7826087,5.94368685 42.7130435,7.34828411 44.0673913,8.07858851 C44.0195652,8.25524031 43.9565217,8.42542924 43.9565217,8.61716108 L43.9565217,16.1787199 L43.9565217,19.3886124 L43.9565217,20.5346948 L39.3565217,19.3886124 L33.0869565,17.8245977 L30.9130435,17.2838708 L26.5652174,16.1981085 L24.3913043,15.6573817 L13.5217391,12.9472845 L13.5217391,8.01826838 C14.8173913,7.27288395 15.6956522,5.89844676 15.6956522,4.30858054 C15.6956522,3.46409875 15.4413043,2.68424568 15.0173913,2.01856998 C14.2478261,0.810013141 12.8978261,0 11.3478261,0 C9.79782609,0 8.44782609,0.810013141 7.67826087,2.01856998 C7.25434783,2.68424568 7,3.46409875 7,4.30858054 C7,5.89844676 7.87826087,7.27288395 9.17391304,8.01826838 L9.17391304,16.1787199 L9.17391304,19.3886124 L9.17391304,42.4481355 L9.17391304,69.0708546 L9.17391304,97.8457097 C9.17391304,99.034878 10.1456522,100 11.3478261,100 C12.55,100 13.5217391,99.034878 13.5217391,97.8457097 L13.5217391,69.0708546 L13.5217391,47.8467869 L24.3913043,50.556884 L33.0869565,52.7219458 L43.9565217,55.4320429 L43.9565217,69.0708546 L43.9565217,96.9430621 C43.9565217,98.1322303 44.9282609,99.0973524 46.1304348,99.0973524 C47.3326087,99.0973524 48.3043478,98.1322303 48.3043478,96.9430621 L48.3043478,69.0708546 L48.3043478,56.5156509 L54.9543478,58.1744544 C57.276087,58.7518042 59.173913,57.2933497 59.173913,54.9107047 L59.173913,50.556884 L70.0434783,53.2648269 L89.7369565,58.1744544 C92.0586957,58.7518042 93.9565217,57.2933497 93.9565217,54.9107047 L93.9565217,28.6434434 C93.9565217,26.2543355 92.0673913,23.8566104 89.7369565,23.2749521 L89.7369565,23.2749521 Z" id="COUNTRY" fill="#2A8D51"></path>
    </g>
</svg>