<svg width="88" height="88" viewBox="0 0 88 88" fill="none" xmlns="http://www.w3.org/2000/svg">
<rect x="23.9771" y="0.518311" width="67.5589" height="67.5589" rx="16" transform="rotate(20.7876 23.9771 0.518311)" fill="#B0AFCD"/>
<rect y="19.5183" width="67.5589" height="67.5589" rx="16" fill="url(#paint0_linear)"/>
<g clip-path="url(#clip0)">
<path d="M21.2553 58.5864C21.0515 58.9929 21.1309 59.4842 21.452 59.8056L21.7099 60.0635C22.455 59.1805 23.3235 58.2222 24.3768 57.1691C24.4513 57.0947 24.5279 57.0587 24.6026 56.9901L22.9434 55.3306C21.9788 57.0752 21.4163 58.2672 21.2553 58.5864Z" fill="black"/>
<path d="M30.3428 63.1352C29.287 64.191 28.3312 65.0611 27.4531 65.8068L27.8025 66.1562C28.1266 66.4803 28.6226 66.5583 29.0305 66.3484C29.5768 66.0669 30.4359 65.6626 32.2596 64.6469L30.5222 62.9094C30.4535 62.9844 30.4175 63.0608 30.3428 63.1352Z" fill="black"/>
<path d="M29.7806 57.7327C29.0184 56.9705 26.875 57.6539 25.8681 58.6605C22.4997 62.0289 20.9784 64.4171 20.2953 65.8272C20.0994 66.2312 20.181 66.7149 20.4985 67.0324C20.8166 67.3507 21.3011 67.4314 21.7054 67.2356C23.0839 66.5663 25.4429 65.0521 28.8514 61.6438C29.9586 60.5362 30.5049 58.4573 29.7814 57.7335L29.7806 57.7327Z" fill="black"/>
<path d="M19.292 49.5606L16.3089 52.5436C15.9717 52.8809 15.9024 53.403 16.1414 53.8167C16.3746 54.2248 16.8629 54.4327 17.3276 54.3083C18.9399 53.876 20.3585 53.6934 21.3138 53.9384C22.6728 51.5222 24.1331 49.298 25.6797 47.2776C24.7852 46.7041 21.829 47.0236 19.292 49.5606Z" fill="black"/>
<path d="M33.8521 71.4052C34.2584 71.6107 34.7503 71.5313 35.0719 71.2094L38.0552 68.2263C40.3648 65.9162 40.7713 62.9356 40.2473 61.9905C37.994 63.6887 35.7113 65.1227 33.5816 66.3232C33.7285 67.153 33.6308 67.958 33.2833 70.3091C33.2155 70.7642 33.4506 71.2044 33.8521 71.4052Z" fill="black"/>
<path d="M36.9393 46.0982C35.7058 47.3319 35.7058 49.3389 36.9393 50.5726C38.173 51.8064 40.1802 51.8064 41.414 50.5726C42.6478 49.3389 42.6478 47.3319 41.414 46.0982C40.1802 44.8644 38.173 44.8644 36.9393 46.0982Z" fill="black"/>
<path d="M51.9378 36.5471C51.8999 36.0255 51.4846 35.6133 50.9646 35.5742C48.3743 35.3792 45.7942 35.6978 43.2651 36.4713C43.4555 38.2088 44.3542 40.0891 45.8884 41.6233C47.441 43.1757 49.3724 44.0741 51.141 44.2422C51.8221 41.8551 52.1451 39.2986 51.9378 36.5471Z" fill="black"/>
<path d="M44.3972 43.1151C42.6422 41.36 41.5704 39.2551 41.2266 37.2056C34.8932 39.803 28.8304 45.4753 24.0396 53.4436L26.4197 55.8238C28.046 55.1635 30.0202 54.9891 31.2724 56.241C32.5262 57.4951 32.3485 59.4685 31.6885 61.0926L34.147 63.5511C40.2779 59.8561 47.4157 54.0347 50.451 46.2896C48.3515 45.9724 46.1808 44.8987 44.3972 43.1151ZM42.9053 52.0643C40.8495 54.1201 37.5038 54.1201 35.4478 52.0643C33.3917 50.0082 33.3917 46.6623 35.4478 44.6065C37.5038 42.5507 40.8495 42.5507 42.9053 44.6065C44.9614 46.6626 44.9614 50.0082 42.9053 52.0643Z" fill="black"/>
</g>
<defs>
<linearGradient id="paint0_linear" x1="8" y1="27.5183" x2="33.7794" y2="87.0772" gradientUnits="userSpaceOnUse">
<stop stop-color="#FBB688"/>
<stop offset="0.666667" stop-color="#FE9A97"/>
<stop offset="1" stop-color="#96CBD1"/>
</linearGradient>
<clipPath id="clip0">
<rect width="36" height="36" fill="white" transform="translate(16 35.5183)"/>
</clipPath>
</defs>
</svg>
