<svg width="88" height="88" viewBox="0 0 88 88" fill="none" xmlns="http://www.w3.org/2000/svg">
<rect x="23.9771" y="0.518311" width="67.5589" height="67.5589" rx="16" transform="rotate(20.7876 23.9771 0.518311)" fill="#B0AFCD"/>
<rect y="16.5183" width="67.5589" height="67.5589" rx="16" fill="url(#paint0_linear)"/>
<g clip-path="url(#clip0)">
<path d="M18 63.0596C18 64.9664 19.5519 66.5183 21.4588 66.5183H46.5413C48.4481 66.5183 50 64.9664 50 63.0596V51.4558H18V63.0596ZM39.3525 59.5183H42.3263C42.7319 59.5183 43.0625 59.1877 43.0625 58.7821V55.8083C43.0625 54.5681 44.9375 54.5677 44.9375 55.8083V58.7821C44.9375 60.2221 43.7663 61.3933 42.3263 61.3933H39.3525C38.1123 61.3933 38.1119 59.5183 39.3525 59.5183ZM23.0625 55.8083C23.0625 54.5681 24.9375 54.5677 24.9375 55.8083V58.7821C24.9375 59.1877 25.2681 59.5183 25.6737 59.5183H28.6475C29.8877 59.5183 29.8881 61.3933 28.6475 61.3933H25.6737C24.2337 61.3933 23.0625 60.2221 23.0625 58.7821V55.8083Z" fill="black"/>
<path d="M46.5413 34.5183C39.9526 34.5183 61.2946 34.5183 21.4588 34.5183C19.5519 34.5183 18 36.0702 18 37.9771V49.5808H50V37.9771C50 36.0702 48.4481 34.5183 46.5413 34.5183ZM28.6475 41.3933H25.6737C25.2681 41.3933 24.9375 41.7239 24.9375 42.1296V45.1033C24.9375 46.3435 23.0625 46.3439 23.0625 45.1033V42.1296C23.0625 40.6896 24.2337 39.5183 25.6737 39.5183H28.6475C29.8877 39.5183 29.8881 41.3933 28.6475 41.3933ZM44.9375 45.1033C44.9375 46.3435 43.0625 46.3439 43.0625 45.1033V42.1296C43.0625 41.7239 42.7319 41.3933 42.3263 41.3933H39.3525C38.1123 41.3933 38.1119 39.5183 39.3525 39.5183H42.3263C43.7663 39.5183 44.9375 40.6896 44.9375 42.1296V45.1033Z" fill="black"/>
</g>
<defs>
<linearGradient id="paint0_linear" x1="11" y1="25.5183" x2="55" y2="84.5183" gradientUnits="userSpaceOnUse">
<stop stop-color="#CF6DEA"/>
<stop offset="1" stop-color="#F5B09D"/>
</linearGradient>
<clipPath id="clip0">
<rect width="32" height="32" fill="white" transform="translate(18 34.5183)"/>
</clipPath>
</defs>
</svg>
