<?xml version="1.0" encoding="UTF-8"?>
<svg width="100px" height="100px" viewBox="0 0 100 100" version="1.1" xmlns="http://www.w3.org/2000/svg" xmlns:xlink="http://www.w3.org/1999/xlink">
    <!-- Generator: Sketch 64 (93537) - https://sketch.com -->
    <title>Artboard</title>
    <desc>Created with Sketch.</desc>
    <g id="Artboard" stroke="none" stroke-width="1" fill="none" fill-rule="evenodd">
        <path d="M29.0717391,57.4258007 L36.9565217,57.4258007 L36.9565217,59.5960238 L36.9565217,61.7662469 L15.2173913,61.7662469 L15.2173913,59.5960238 L15.2173913,57.4258007 L29.0717391,57.4258007 Z M30.4347826,44.4044621 L58.6956522,44.4044621 L58.6956522,46.5746852 L58.6956522,48.7449083 L56.5369565,48.7449083 L47.826087,48.7449083 L30.4347826,48.7449083 L26.0869565,48.7449083 L15.2173913,48.7449083 L15.2173913,46.5746852 L15.2173913,44.4044621 L26.0869565,44.4044621 L30.4347826,44.4044621 Z M95.6521739,50.9346634 C95.6521739,53.3132279 93.7043478,55.2555776 91.3130435,55.2555776 L85.7152174,55.2555776 L84.7826087,55.2555776 L81.3673913,55.2555776 L81.3673913,59.5960238 L81.3673913,66.5320569 L73.9130435,59.7175563 L73.9130435,59.5960238 L73.9130435,55.2555776 L73.9130435,50.9151314 L73.9130435,46.5746852 L73.9130435,35.7040377 C73.9130435,30.9273766 70.0195652,27.0426773 65.226087,27.0426773 L30.4347826,27.0426773 L30.4347826,16.1915617 L30.4347826,9.66136041 C30.4347826,7.28279589 32.3804348,5.34044621 34.773913,5.34044621 L91.3130435,5.34044621 C93.7195652,5.34044621 95.6521739,7.26977455 95.6521739,9.66136041 L95.6521739,50.9346634 Z M69.5652174,76.9773407 C69.5652174,79.3689265 67.6326087,81.2982549 65.226087,81.2982549 L38.2652174,81.2982549 L31.7804348,81.2982549 L28.2478261,84.4884828 L26.9717391,85.6387011 L19.5652174,92.3251585 L19.5652174,85.6387011 L19.5652174,84.4884828 L19.5652174,81.2982549 L15.2173913,81.2982549 L8.68695652,81.2982549 C6.29347826,81.2982549 4.34782609,79.3559052 4.34782609,76.9773407 L4.34782609,72.6173625 L4.34782609,59.5960238 L4.34782609,46.5746852 L4.34782609,35.7040377 C4.34782609,34.9162467 4.57173913,34.1892219 4.93913043,33.5533466 C5.68695652,32.2598936 7.07391304,31.3831235 8.68695652,31.3831235 L15.2173913,31.3831235 L26.0869565,31.3831235 L30.4347826,31.3831235 L65.226087,31.3831235 C66.8282609,31.3831235 68.2152174,32.264234 68.9673913,33.5533466 C69.3347826,34.1892219 69.5652174,34.9184169 69.5652174,35.7040377 L69.5652174,46.5746852 L69.5652174,50.9151314 L69.5652174,55.2555776 L69.5652174,55.7417076 L69.5652174,59.5960238 L69.5652174,61.6273527 L69.5652174,76.9773407 Z M91.3130435,1 L34.773913,1 C29.9804348,1 26.0869565,4.88469936 26.0869565,9.66136041 L26.0869565,16.1915617 L26.0869565,27.0426773 L15.2173913,27.0426773 L8.68695652,27.0426773 C3.88043478,27.0426773 0,30.9143553 0,35.7040377 L0,76.9773407 C0,81.7540017 3.89347826,85.6387011 8.68695652,85.6387011 L15.2173913,85.6387011 L15.2173913,97.2125009 C15.2173913,99.0940843 17.45,100.083706 18.85,98.8228065 L33.4586957,85.6387011 L65.226087,85.6387011 C66.7826087,85.6387011 68.2195652,85.200316 69.4826087,84.4884828 C72.1173913,83.00188 73.9130435,80.2153136 73.9130435,76.9773407 L73.9130435,65.6032014 L82.0717391,73.0622582 C82.8934783,73.8131554 84.0043478,73.7654105 84.7826087,73.2228547 C85.326087,72.8452359 85.7152174,72.2375734 85.7152174,71.4628038 L85.7152174,59.5960238 L91.3130435,59.5960238 C96.1065217,59.5960238 100,55.7113245 100,50.9346634 L100,9.66136041 C100,4.87167802 96.1195652,1 91.3130435,1 L91.3130435,1 Z" id="COMMUNICATION" fill="#2A8D51"></path>
    </g>
</svg>