<?xml version="1.0" encoding="UTF-8"?>
<svg width="100px" height="100px" viewBox="0 0 100 100" version="1.1" xmlns="http://www.w3.org/2000/svg" xmlns:xlink="http://www.w3.org/1999/xlink">
    <!-- Generator: Sketch 64 (93537) - https://sketch.com -->
    <title>Artboard</title>
    <desc>Created with Sketch.</desc>
    <g id="Artboard" stroke="none" stroke-width="1" fill="none" fill-rule="evenodd">
        <path d="M90,35 L83.6842105,35 L71.0526316,35 L58.4210526,35 L54.2105263,35 L45.7894737,35 L41.5789474,35 L28.9473684,35 L16.3157895,35 L10,35 L10,32.7777778 L10,19.4622222 C10,17.8422222 10.8126316,16.4266667 12.0336842,15.6444444 C12.44,15.3844444 12.8905263,15.1955556 13.3747368,15.0911111 C13.6484211,15.0311111 13.9347368,15 14.2273684,15 L16.3157895,15 L26.8421053,15 L26.8421053,23.8822222 C26.8421053,25.0977778 27.7831579,26.1111111 28.9473684,26.1111111 C30.12,26.1111111 31.0526316,25.1133333 31.0526316,23.8822222 L31.0526316,15 L41.5789474,15 L58.4210526,15 L68.9473684,15 L68.9473684,23.8822222 C68.9473684,25.0977778 69.8884211,26.1111111 71.0526316,26.1111111 C72.2252632,26.1111111 73.1578947,25.1133333 73.1578947,23.8822222 L73.1578947,15 L83.6842105,15 L85.7726316,15 C87.4842105,15 88.9431579,16.0755556 89.6063158,17.6222222 C89.7010526,17.84 89.7810526,18.0711111 89.84,18.3088889 C89.8631579,18.3933333 89.8968421,18.4733333 89.9136842,18.5622222 C89.9263158,18.6177778 89.9221053,18.68 89.9305263,18.74 C89.9663158,18.9755556 90,19.2133333 90,19.4622222 L90,32.7777778 L90,35 Z M90,49.1358025 L90,75.0617284 L90,92.3283951 C90,94.7287037 88.1136842,96.6666667 85.7726316,96.6666667 L45.7894737,96.6666667 L14.2273684,96.6666667 C11.8884211,96.6666667 10,94.7287037 10,92.3283951 L10,75.0617284 L10,57.7777778 L10,49.1358025 L10,38.3333333 L28.9473684,38.3333333 L45.7894737,38.3333333 L54.2105263,38.3333333 L71.0526316,38.3333333 L90,38.3333333 L90,49.1358025 Z M94.8542857,17.7170213 C94.1578571,13.6957447 90.6564286,10.6382979 86.4114286,10.6382979 L84.2857143,10.6382979 L73.5714286,10.6382979 L73.5714286,2.13404255 C73.5714286,0.970212766 72.6135714,0 71.4285714,0 C70.235,0 69.2857143,0.955319149 69.2857143,2.13404255 L69.2857143,10.6382979 L58.5714286,10.6382979 L41.4285714,10.6382979 L30.7142857,10.6382979 L30.7142857,2.13404255 C30.7142857,0.970212766 29.7564286,0 28.5714286,0 C27.3778571,0 26.4285714,0.955319149 26.4285714,2.13404255 L26.4285714,10.6382979 L15.7142857,10.6382979 L13.5885714,10.6382979 C12.9928571,10.6382979 12.4142857,10.6978723 11.855,10.8106383 C11.3664286,10.9106383 10.8907143,11.0510638 10.4364286,11.2276596 C7.25,12.4765957 5,15.5574468 5,19.1638298 L5,19.1659574 L5,31.9148936 L5,34.0425532 L5,38.2978723 L5,48.9361702 L5,57.4468085 L5,74.4680851 L5,91.4723404 C5,96.1893617 8.84642857,100 13.5885714,100 L45.7142857,100 L86.4114286,100 C91.1621429,100 95,96.1808511 95,91.4723404 L95,74.4680851 L95,48.9361702 L95,38.2978723 L95,34.0425532 L95,31.9148936 L95,19.1659574 L95,19.1638298 C95,18.6659574 94.9357143,18.1893617 94.8542857,17.7170213 L94.8542857,17.7170213 Z M83.3333333,46.6666667 L83.3333333,48.8888889 L83.3333333,60 L72.2222222,60 L70,60 L70,48.8888889 L70,46.6666667 L72.2222222,46.6666667 L83.3333333,46.6666667 Z M71.3333333,41.6666667 C68.7363333,41.6666667 66.6666667,43.608 66.6666667,46 L66.6666667,48.1666667 L66.6666667,59 C66.6666667,61.4093333 68.755,63.3333333 71.3333333,63.3333333 L73.6666667,63.3333333 L85.3333333,63.3333333 C87.9303333,63.3333333 90,61.392 90,59 L90,48.1666667 L90,46 C90,43.5906667 87.9116667,41.6666667 85.3333333,41.6666667 L73.6666667,41.6666667 L71.3333333,41.6666667 Z M56.6666667,60 L54.4444444,60 L45.5555556,60 L43.3333333,60 L43.3333333,57.7777778 L43.3333333,48.8888889 L43.3333333,46.6666667 L45.5555556,46.6666667 L54.4444444,46.6666667 L56.6666667,46.6666667 L56.6666667,48.8888889 L56.6666667,60 Z M57,41.6666667 L54.6666667,41.6666667 L45.3333333,41.6666667 L43,41.6666667 C40.403,41.6666667 38.3333333,43.608 38.3333333,46 L38.3333333,48.1666667 L38.3333333,56.8333333 L38.3333333,59 C38.3333333,61.4093333 40.4216667,63.3333333 43,63.3333333 L45.3333333,63.3333333 L54.6666667,63.3333333 L57,63.3333333 C59.597,63.3333333 61.6666667,61.392 61.6666667,59 L61.6666667,48.1666667 L61.6666667,46 C61.6666667,43.5906667 59.5783333,41.6666667 57,41.6666667 L57,41.6666667 Z M31.6666667,57.7777778 L31.6666667,60 L29.4444444,60 L18.3333333,60 L18.3333333,57.7777778 L18.3333333,48.8888889 L18.3333333,46.6666667 L29.4444444,46.6666667 L31.6666667,46.6666667 L31.6666667,48.8888889 L31.6666667,57.7777778 Z M33.6666667,41.6666667 L31.3333333,41.6666667 L19.6666667,41.6666667 C17.0696667,41.6666667 15,43.608 15,46 L15,48.1666667 L15,56.8333333 L15,59 C15,61.4093333 17.0883333,63.3333333 19.6666667,63.3333333 L31.3333333,63.3333333 L33.6666667,63.3333333 C36.2636667,63.3333333 38.3333333,61.392 38.3333333,59 L38.3333333,56.8333333 L38.3333333,48.1666667 L38.3333333,46 C38.3333333,43.5906667 36.245,41.6666667 33.6666667,41.6666667 L33.6666667,41.6666667 Z M31.6666667,86.6666667 L18.3333333,86.6666667 L18.3333333,75.5555556 L18.3333333,73.3333333 L29.4444444,73.3333333 L31.6666667,73.3333333 L31.6666667,75.5555556 L31.6666667,86.6666667 Z M33.6666667,68.3333333 L31.3333333,68.3333333 L19.6666667,68.3333333 C17.0696667,68.3333333 15,70.2746667 15,72.6666667 L15,74.8333333 L15,85.6666667 C15,88.076 17.0883333,90 19.6666667,90 L33.6666667,90 C36.2636667,90 38.3333333,88.0586667 38.3333333,85.6666667 L38.3333333,74.8333333 L38.3333333,72.6666667 C38.3333333,70.2573333 36.245,68.3333333 33.6666667,68.3333333 L33.6666667,68.3333333 Z" id="CALENDAR" fill="#2A8D51"></path>
    </g>
</svg>