<?xml version="1.0" encoding="UTF-8"?>
<svg width="100px" height="100px" viewBox="0 0 100 100" version="1.1" xmlns="http://www.w3.org/2000/svg" xmlns:xlink="http://www.w3.org/1999/xlink">
    <!-- Generator: Sketch 64 (93537) - https://sketch.com -->
    <title>Artboard</title>
    <desc>Created with Sketch.</desc>
    <g id="Artboard" stroke="none" stroke-width="1" fill="none" fill-rule="evenodd">
        <g id="credit-card-(5)" fill="#2A8D51" fill-rule="nonzero">
            <rect id="Rectangle" x="71.8162839" y="66.6997912" width="10.0208768" height="3.34029228"></rect>
            <rect id="Rectangle" x="58.4551148" y="66.6997912" width="10.0208768" height="3.34029228"></rect>
            <rect id="Rectangle" x="45.0939457" y="66.6997912" width="10.0208768" height="3.34029228"></rect>
            <path d="M98.5169102,34.6379958 L65.4697286,1.58580376 C64.5313152,0.638413361 63.2526096,0.10605428 61.9189979,0.107720508 L61.9039666,0.107720508 C60.5791232,0.107720508 59.3102296,0.64091858 58.3816284,1.58580376 L23.325261,36.6371608 L5.01043841,36.6371608 C2.24321503,36.6371608 0,38.8803758 0,41.6475992 L0,88.411691 C0,91.1789144 2.24321503,93.4221294 5.01043841,93.4221294 L29.7553236,93.4221294 L34.7390397,98.4108559 C35.677453,99.3582463 36.9561587,99.8906054 38.2897704,99.8889392 L38.3031315,99.8889392 C39.6283925,99.8889392 40.8981211,99.3559499 41.8271399,98.4108559 L46.8208768,93.4221294 L85.177453,93.4221294 C87.9446764,93.4221294 90.1878914,91.1789144 90.1878914,88.411691 L90.1878914,50.0551148 L98.5085595,41.7344468 C99.4582463,40.8048017 99.9943633,39.5325678 99.9966947,38.2037578 C100.00167,36.8647182 99.468476,35.5799582 98.5169102,34.6379958 Z M77.2709812,18.1152401 L58.7490605,36.6371608 L44.5661795,36.6371608 L70.1795407,11.0237996 L77.2709812,18.1152401 Z M60.7465553,3.94070981 C61.3818372,3.28997912 62.4244259,3.27745303 63.0753653,3.91294363 C63.0847599,3.92212944 63.0941545,3.93131524 63.1031315,3.94070981 L67.8179541,8.66221294 L39.8413361,36.6371608 L28.0484342,36.6371608 L60.7465553,3.94070981 Z M39.4622129,96.0559499 C39.156785,96.3749478 38.7346555,96.5557411 38.2931106,96.5569937 C37.8455115,96.5559499 37.417119,96.3755741 37.1039666,96.0559499 L34.480167,93.4221294 L42.0977035,93.4221294 L39.4622129,96.0559499 Z M86.8475992,88.411691 C86.8475992,89.3340292 86.0997912,90.0818372 85.177453,90.0818372 L5.01043841,90.0818372 C4.08810021,90.0818372 3.34029228,89.3340292 3.34029228,88.411691 L3.34029228,65.0296451 L86.8475992,65.0296451 L86.8475992,88.411691 Z M86.8475992,61.6893528 L3.34029228,61.6893528 L3.34029228,51.668476 L86.8475992,51.668476 L86.8475992,61.6893528 Z M86.8475992,48.3281837 L3.34029228,48.3281837 L3.34029228,41.6475992 C3.34029228,40.725261 4.08810021,39.977453 5.01043841,39.977453 L85.177453,39.977453 C86.0997912,39.977453 86.8475992,40.725261 86.8475992,41.6475992 L86.8475992,48.3281837 Z M96.1553236,39.3645094 L96.1553236,39.3645094 L90.1878914,45.3319415 L90.1878914,41.6475992 C90.1878914,38.8803758 87.9446764,36.6371608 85.177453,36.6371608 L63.4655532,36.6371608 L79.6258873,20.4768267 L96.148643,36.9995825 C96.4695198,37.3139875 96.6501044,37.7444676 96.6496876,38.193737 C96.6492693,38.6346555 96.4709812,39.056785 96.1553236,39.3645094 Z" id="Shape"></path>
            <path d="M16.0183716,86.7866388 C16.2622129,86.5757829 16.4906054,86.3473904 16.7014614,86.1035491 C18.9100209,88.6759916 22.7048017,89.1647182 25.4931106,87.2359081 C27.2926931,85.9776618 28.3728601,83.9269311 28.3924843,81.7311065 C28.3924843,78.0415449 25.4014614,75.0505219 21.7118998,75.0505219 C21.3803758,75.045929 21.0492693,75.073904 20.7231733,75.1340292 L20.6797495,75.1457203 C20.663048,75.1457203 20.6463466,75.1457203 20.6313152,75.1457203 C19.1012526,75.4 17.7098121,76.1851775 16.7014614,77.3636743 C14.2881002,74.5728601 10.0691023,74.2670146 7.27849687,76.6805846 C4.48768267,79.0939457 4.18183716,83.3129436 6.5954071,86.1035491 C9.00876827,88.8943633 13.2275574,89.2002088 16.0183716,86.7866388 Z M21.2893528,78.4258873 C21.4286013,78.3993737 21.5701461,78.3876827 21.7118998,78.3908142 C23.556785,78.3908142 25.0521921,79.8862213 25.0521921,81.7311065 C25.0505219,82.4377871 24.8202505,83.1250522 24.3958246,83.6901879 C24.3356994,83.7720251 24.2889353,83.8572025 24.2204593,83.94238 C24.2087683,83.9557411 24.1920668,83.9640919 24.1787056,83.977453 C23.5478079,84.6741127 22.6517745,85.0716075 21.7118998,85.0713988 C19.8674322,85.0398747 18.3974948,83.5192067 18.4290188,81.674739 C18.4569937,80.036952 19.6682672,78.6609603 21.2893528,78.4258873 Z M11.691023,78.3908142 C13.5359081,78.3908142 15.0313152,79.8862213 15.0313152,81.7311065 C15.0313152,83.5759916 13.5359081,85.0713987 11.691023,85.0713987 C9.84613779,85.0713987 8.35073069,83.5759916 8.35073069,81.7311065 C8.35073069,79.8862213 9.84613779,78.3908142 11.691023,78.3908142 Z" id="Shape"></path>
        </g>
    </g>
</svg>