<?xml version="1.0" encoding="UTF-8"?>
<svg width="100px" height="100px" viewBox="0 0 100 100" version="1.1" xmlns="http://www.w3.org/2000/svg" xmlns:xlink="http://www.w3.org/1999/xlink">
    <!-- Generator: Sketch 64 (93537) - https://sketch.com -->
    <title>Artboard</title>
    <desc>Created with Sketch.</desc>
    <g id="Artboard" stroke="none" stroke-width="1" fill="none" fill-rule="evenodd">
        <path d="M78.3333333,46.5622222 L78.3333333,68.7711111 C78.3333333,70.0022222 77.2258333,71 75.8333333,71 C74.4508333,71 73.3333333,69.9866667 73.3333333,68.7711111 L73.3333333,46.5622222 C73.3333333,45.3311111 74.4408333,44.3333333 75.8333333,44.3333333 C77.2158333,44.3333333 78.3333333,45.3466667 78.3333333,46.5622222 L78.3333333,46.5622222 Z M88.3333333,51.4891667 L88.3333333,68.8441667 C88.3333333,70.0358333 87.2258333,71 85.8333333,71 C84.4508333,71 83.3333333,70.012 83.3333333,68.8441667 L83.3333333,51.4891667 C83.3333333,50.2975 84.4408333,49.3333333 85.8333333,49.3333333 C87.2158333,49.3333333 88.3333333,50.3213333 88.3333333,51.4891667 L88.3333333,51.4891667 Z M70,51.4891667 L70,68.8441667 C70,70.0358333 68.8925,71 67.5,71 C66.1175,71 65,70.012 65,68.8441667 L65,51.4891667 C65,50.2975 66.1075,49.3333333 67.5,49.3333333 C68.8825,49.3333333 70,50.3213333 70,51.4891667 L70,51.4891667 Z M61.6666667,58.1492857 L61.6666667,68.8507143 C61.6666667,70.0378571 60.5591667,71 59.1666667,71 C57.7841667,71 56.6666667,70.0635714 56.6666667,68.8507143 L56.6666667,58.1492857 C56.6666667,56.9621429 57.7741667,56 59.1666667,56 C60.5491667,56 61.6666667,56.9385714 61.6666667,58.1492857 L61.6666667,58.1492857 Z M41.4216667,57.8091537 C41.4123333,57.8566494 41.4076667,57.906304 41.396,57.9516408 C41.235,58.6986183 40.997,59.421848 40.703,60.1213299 C40.6726667,60.1904145 40.6493333,60.2638169 40.619,60.3350604 C40.318,61.0151123 39.947,61.6670984 39.5223333,62.2931779 C39.4756667,62.3622625 39.429,62.4378238 39.3823333,62.5069085 C39.3403333,62.5651986 39.2843333,62.6105354 39.247,62.6666667 C37.364,61.0064767 37.0933333,60.7668394 35.9243333,59.7327288 C35.4623333,59.3268566 35.4623333,59.3268566 35.278,59.1627807 C35.2196667,59.1109672 35.2196667,59.1109672 35.1963333,59.0915371 C35.1916667,59.0850604 35.1916667,59.0850604 35.187,59.0807427 L35.1846667,59.0785838 C35.1823333,59.0764249 35.1823333,59.0764249 35.173,59.0721071 C35.1496667,59.0505181 35.1496667,59.0505181 35.0936667,58.9987047 C34.9093333,58.8367876 34.9093333,58.8367876 34.4473333,58.4287565 C33.08,57.2219344 32.9423333,57.0988774 30,54.5017271 L30,47.8760794 L30,47.8696028 L30,47.7508636 L30,46.9261658 L30,42.6666667 C36.6173333,43.6943005 41.6666667,49.0073402 41.6666667,55.425734 C41.6666667,56.2353195 41.5756667,57.0319516 41.4216667,57.8091537 L41.4216667,57.8091537 Z M28.5642738,67.6666667 C21.0745339,67.6666667 15,62.0285474 15,55.0722082 C15,48.8316541 19.8921814,43.665827 26.3035615,42.6666667 L26.3035615,46.8081444 L26.3035615,47.6099916 L26.3035615,47.7254408 L26.3035615,47.731738 L26.3035615,55.0722082 C26.3035615,55.6473552 26.5545006,56.1952141 27.0043823,56.5919395 C30.5830899,59.7594458 30.5830899,59.7594458 32.01186,61.0293871 C32.4594811,61.4240134 32.4594811,61.4240134 32.6380774,61.5856423 C32.6923344,61.6339211 32.6923344,61.6339211 32.7149416,61.6528128 C32.7239844,61.65911 32.7239844,61.65911 32.7262451,61.6633081 L32.7285058,61.6633081 L32.7285058,61.6654072 C32.7330273,61.6675063 32.7330273,61.6675063 32.7375487,61.6738035 C32.7601558,61.6926952 32.7601558,61.6926952 32.8166736,61.743073 C32.9952699,61.9005038 32.9952699,61.9005038 33.4428909,62.2972292 C34.5777685,63.3005877 34.8377504,63.5335852 36.6666667,65.1561713 C34.4059544,66.7262804 31.6071925,67.6666667 28.5642738,67.6666667 L28.5642738,67.6666667 Z M29.1666667,37.6666667 C23.9319792,37.6666667 19.2485417,39.9788542 16.0416667,43.6188542 C13.3269792,46.7032292 11.6666667,50.7369792 11.6666667,55.1666667 C11.6666667,59.5963542 13.3269792,63.6301042 16.0416667,66.7144792 C19.2485417,70.3544792 23.9319792,72.6666667 29.1666667,72.6666667 C34.1235417,72.6666667 38.5882292,70.5994792 41.7710417,67.2876042 C41.7885417,67.2701042 41.8082292,67.2657292 41.8257292,67.2504167 C41.9744792,67.0907292 42.1079167,66.9201042 42.2522917,66.7582292 C42.4316667,66.5526042 42.6154167,66.3513542 42.7882292,66.1413542 C42.9719792,65.9160417 43.1382292,65.6819792 43.3066667,65.4457292 C43.4641667,65.2313542 43.6238542,65.0191667 43.7726042,64.7938542 C43.9344792,64.5488542 44.0810417,64.2929167 44.2319792,64.0413542 C44.3632292,63.8138542 44.5032292,63.5929167 44.6257292,63.3566667 C44.7657292,63.0963542 44.8860417,62.8272917 45.0107292,62.5626042 C45.1244792,62.3219792 45.2426042,62.0835417 45.3432292,61.8363542 C45.4547917,61.5672917 45.5466667,61.2872917 45.6451042,61.0116667 C45.7347917,60.7557292 45.8332292,60.5063542 45.9097917,60.2460417 C45.9994792,59.9594792 46.0651042,59.6619792 46.1372917,59.3666667 C46.2007292,59.1107292 46.2729167,58.8635417 46.3254167,58.6010417 C46.3932292,58.2597917 46.4369792,57.9141667 46.4829167,57.5685417 C46.5135417,57.3454167 46.5551042,57.1332292 46.5791667,56.9079167 C46.6360417,56.3326042 46.6666667,55.7529167 46.6666667,55.1666667 C46.6666667,45.5022917 38.8310417,37.6666667 29.1666667,37.6666667 L29.1666667,37.6666667 Z M26.6666667,16.8333333 C26.6666667,18.2158333 25.5491667,19.3333333 24.1666667,19.3333333 C22.7841667,19.3333333 21.6666667,18.2158333 21.6666667,16.8333333 C21.6666667,15.4508333 22.7841667,14.3333333 24.1666667,14.3333333 C25.5491667,14.3333333 26.6666667,15.4508333 26.6666667,16.8333333 L26.6666667,16.8333333 Z M20,16.8333333 C20,18.2158333 18.8825,19.3333333 17.5,19.3333333 C16.1175,19.3333333 15,18.2158333 15,16.8333333 C15,15.4508333 16.1175,14.3333333 17.5,14.3333333 C18.8825,14.3333333 20,15.4508333 20,16.8333333 L20,16.8333333 Z M13.3333333,16.8333333 C13.3333333,18.2158333 12.2158333,19.3333333 10.8333333,19.3333333 C9.45083333,19.3333333 8.33333333,18.2158333 8.33333333,16.8333333 C8.33333333,15.4508333 9.45083333,14.3333333 10.8333333,14.3333333 C12.2158333,14.3333333 13.3333333,15.4508333 13.3333333,16.8333333 L13.3333333,16.8333333 Z M96.6666667,24.3333333 L37.7380952,24.3333333 L31.1904762,24.3333333 L24.6428571,24.3333333 L11.547619,24.3333333 L5,24.3333333 L5,13.2222222 L5,13.2177778 C5,12.0022222 5.98650794,11 7.18253968,11 L11.547619,11 L24.6428571,11 L31.1904762,11 L37.7380952,11 L94.484127,11 C95.6910714,11 96.6666667,11.9911111 96.6666667,13.2177778 L96.6666667,13.2222222 L96.6666667,24.3333333 Z M96.6666667,87.2111494 C96.6666667,88.3743103 95.6801587,89.3333333 94.484127,89.3333333 L7.18253968,89.3333333 C5.97559524,89.3333333 5,88.3849425 5,87.2111494 L5,82.954023 L5,38.2988506 L5,29.7931034 L5,27.6666667 L11.547619,27.6666667 L15.9126984,27.6666667 L24.6428571,27.6666667 L31.1904762,27.6666667 L37.7380952,27.6666667 L57.3809524,27.6666667 L96.6666667,27.6666667 L96.6666667,38.2988506 L96.6666667,80.8275862 L96.6666667,87.2111494 Z M93.4782609,6 L36.9565217,6 L30.4347826,6 L23.9130435,6 L10.8695652,6 L6.52173913,6 C5.75652174,6 5.03043478,6.15512195 4.34782609,6.39857724 C1.82826087,7.29052846 0,9.65398374 0,12.4591057 L0,12.4634146 L0,27.5447154 L0,29.699187 L0,38.3170732 L0,83.5609756 L0,87.8742276 C0,91.444187 2.92173913,94.3333333 6.52173913,94.3333333 L93.4782609,94.3333333 C97.0608696,94.3333333 100,91.439878 100,87.8742276 L100,38.3170732 L100,12.4634146 L100,12.4591057 C100,8.88914634 97.0782609,6 93.4782609,6 L93.4782609,6 Z" id="ANALYTICS" fill="#2A8D51"></path>
    </g>
</svg>