<svg width="40" height="40" viewBox="0 0 40 40" fill="none" xmlns="http://www.w3.org/2000/svg">
<rect opacity="0.2" width="40" height="40" rx="3" fill="white"/>
<path d="M19.7053 10.8018L13.4553 17.0518C13.3365 17.1714 13.3003 17.3492 13.365 17.5059C13.4293 17.6617 13.5815 17.763 13.7499 17.763H14.5832C14.6939 17.763 14.7997 17.7191 14.8778 17.6409L19.1666 13.3522V30.263C19.1666 30.4933 19.353 30.6797 19.5833 30.6797H20.4166C20.6469 30.6797 20.8333 30.4933 20.8333 30.263V13.3522L25.122 17.6409C25.2001 17.7191 25.3059 17.763 25.4166 17.763H26.2499C26.4184 17.763 26.5706 17.6617 26.6349 17.5059C26.6564 17.4542 26.6666 17.4001 26.6666 17.3464C26.6666 17.2381 26.6243 17.1315 26.5446 17.0518L20.2946 10.8018C20.1318 10.639 19.8681 10.639 19.7053 10.8018Z" fill="white"/>
</svg>
