<?xml version="1.0" encoding="UTF-8"?>
<svg width="100px" height="100px" viewBox="0 0 100 100" version="1.1" xmlns="http://www.w3.org/2000/svg" xmlns:xlink="http://www.w3.org/1999/xlink">
    <!-- Generator: Sketch 64 (93537) - https://sketch.com -->
    <title>Artboard</title>
    <desc>Created with Sketch.</desc>
    <g id="Artboard" stroke="none" stroke-width="1" fill="none" fill-rule="evenodd">
        <path d="M70.4545455,90.5 L70.4545455,72.49775 C70.4545455,71.26025 71.475,70.25 72.7204545,70.25 L79.5522727,70.25 C80.8045455,70.25 81.8181818,71.25575 81.8181818,72.49775 L81.8181818,90.5 L70.4545455,90.5 Z M43.1818182,90.5 L43.1818182,40.98425 C43.1818182,39.758 44.2022727,38.75 45.4477273,38.75 L52.2795455,38.75 C53.5340909,38.75 54.5454545,39.749 54.5454545,40.98425 L54.5454545,90.5 L43.1818182,90.5 Z M15.9090909,90.5 L15.9090909,11.7635 C15.9090909,10.517 16.9340909,9.5 18.175,9.5 L25.0068182,9.5 C26.2590909,9.5 27.2727273,10.50575 27.2727273,11.7635 L27.2727273,90.5 L15.9090909,90.5 Z M97.7272727,90.5 L86.3636364,90.5 L86.3636364,72.49775 C86.3636364,68.7695 83.3136364,65.75 79.5522727,65.75 L72.7204545,65.75 C68.9727273,65.75 65.9090909,68.77175 65.9090909,72.49775 L65.9090909,90.5 L59.0909091,90.5 L59.0909091,40.98425 C59.0909091,37.26275 56.0409091,34.25 52.2795455,34.25 L45.4477273,34.25 C41.6977273,34.25 38.6363636,37.265 38.6363636,40.98425 L38.6363636,90.5 L31.8181818,90.5 L31.8181818,11.7635 C31.8181818,8.0195 28.7681818,5 25.0068182,5 L18.175,5 C14.425,5 11.3636364,8.0285 11.3636364,11.7635 L11.3636364,90.5 L2.27272727,90.5 C1.01818182,90.5 0,91.50575 0,92.75 C0,93.99425 1.01818182,95 2.27272727,95 L11.3636364,95 L15.9090909,95 L27.2727273,95 L31.8181818,95 L38.6363636,95 L43.1818182,95 L54.5454545,95 L59.0909091,95 L65.9090909,95 L70.4545455,95 L81.8181818,95 L86.3636364,95 L97.7272727,95 C98.9840909,95 100,93.99425 100,92.75 C100,91.50575 98.9840909,90.5 97.7272727,90.5 L97.7272727,90.5 Z" id="CHART" fill="#2A8D51"></path>
    </g>
</svg>