<svg width="32" height="32" viewBox="0 0 32 32" fill="none" xmlns="http://www.w3.org/2000/svg">
<circle cx="16" cy="16" r="16" fill="white"/>
<path d="M17.5647 16.6328L21.5432 12.6543C21.8021 12.3955 21.8021 11.977 21.5432 11.7183C21.2844 11.4595 20.866 11.4595 20.6072 11.7183L16.6286 15.6968L12.6502 11.7183C12.3913 11.4595 11.973 11.4595 11.7142 11.7183C11.4553 11.977 11.4553 12.3955 11.7142 12.6543L15.6926 16.6328L11.7142 20.6114C11.4553 20.8701 11.4553 21.2886 11.7142 21.5474C11.8432 21.6764 12.0127 21.7413 12.1822 21.7413C12.3517 21.7413 12.5211 21.6764 12.6502 21.5474L16.6286 17.5688L20.6072 21.5474C20.7363 21.6764 20.9057 21.7413 21.0752 21.7413C21.2446 21.7413 21.4141 21.6764 21.5432 21.5474C21.8021 21.2886 21.8021 20.8701 21.5432 20.6114L17.5647 16.6328Z" fill="black"/>
</svg>
