<svg width="24" height="24" viewBox="0 0 24 24" fill="none" xmlns="http://www.w3.org/2000/svg">
<path d="M2.11342 5.2002C1.33959 6.32339 0.751493 7.58454 0.394897 8.94004H5.85347L2.11342 5.2002Z" fill="#29337A"/>
<path d="M8.63937 0.480225C7.25677 0.882876 5.9763 1.52539 4.84875 2.36342L8.63937 6.15403V0.480225Z" fill="#29337A"/>
<path d="M5.13062 21.8365C6.18824 22.5766 7.36985 23.1495 8.63931 23.5192V18.3284L5.13062 21.8365Z" fill="#29337A"/>
<path d="M0.532593 15.543C0.929367 16.8282 1.53737 18.0205 2.3144 19.0812L5.85264 15.543H0.532593Z" fill="#29337A"/>
<path d="M2.31137 4.92212C2.24428 5.01383 2.17816 5.10685 2.11336 5.20084L5.8534 8.94068H0.394831C0.306366 9.27736 0.234166 9.62053 0.174683 9.96841H7.35806L2.31137 4.92212Z" fill="white"/>
<path d="M4.85229 21.6388C4.9436 21.7069 5.03743 21.7716 5.13061 21.8368L8.63931 18.3285V23.5194C8.9764 23.6179 9.31875 23.703 9.66704 23.7714V16.8242L4.85229 21.6388Z" fill="white"/>
<path d="M0.265991 14.5156C0.340472 14.8639 0.428379 15.2068 0.532399 15.5434H5.8525L2.31426 19.0816C2.69908 19.6074 3.1258 20.1008 3.58945 20.557L9.63079 14.5156H0.265991Z" fill="white"/>
<path d="M8.63934 0.480534V6.15434L4.84868 2.36393C4.3261 2.75255 3.83762 3.18398 3.38501 3.65103L9.66687 9.93289V0.228516C9.31879 0.297322 8.97643 0.382594 8.63934 0.480534Z" fill="white"/>
<path d="M8.6393 15.5073L8.60327 15.5436H8.6393V15.5073Z" fill="#D32030"/>
<path d="M9.6311 14.5154H9.66708V14.4792L9.6311 14.5154Z" fill="#D32030"/>
<path d="M14.249 9.96826H14.2144V10.0031L14.249 9.96826Z" fill="#D32030"/>
<path d="M8.67482 8.94065L8.6394 8.90503V8.94065H8.67482Z" fill="#D32030"/>
<path d="M9.66699 9.93262V9.96808H9.70246L9.66699 9.93262Z" fill="#D32030"/>
<path d="M15.2421 20.8632V23.5532C16.528 23.1932 17.727 22.6257 18.7995 21.8864L15.8848 18.9717C15.6519 19.79 15.5666 20.2131 15.2421 20.8632Z" fill="#252F6C"/>
<path d="M15.9 5.49615L19.0818 2.31431C17.9387 1.47719 16.642 0.839236 15.2419 0.447021V3.2103C15.6162 3.95967 15.6476 4.52907 15.9 5.49615Z" fill="#252F6C"/>
<path d="M21.6365 19.1514C22.4378 18.0734 23.0623 16.8567 23.4679 15.5432H18.0283L21.6365 19.1514Z" fill="#252F6C"/>
<path d="M23.6052 8.94111C23.241 7.55699 22.6353 6.27217 21.837 5.13135L18.0269 8.94111H23.6052Z" fill="#252F6C"/>
<path d="M16.6005 14.7192L17.4251 15.5438L21.3722 19.491C21.4618 19.3788 21.5508 19.267 21.6365 19.152L18.0284 15.5438H23.468C23.5717 15.2075 23.6597 14.8644 23.734 14.5161H16.6776C16.666 14.6618 16.6143 14.5745 16.6005 14.7192Z" fill="#E7E7E7"/>
<path d="M15.7754 6.09783L19.3528 2.51997C19.2632 2.45045 19.1734 2.38129 19.0819 2.31421L15.9 5.49605C15.933 5.62186 15.7447 5.96898 15.7754 6.09783Z" fill="#E7E7E7"/>
<path d="M15.242 2.98915V0.446779C14.9053 0.352437 14.5625 0.272484 14.2142 0.207275V1.4474C14.5966 1.86196 14.9394 2.38267 15.242 2.98915Z" fill="#E7E7E7"/>
<path d="M16.5196 9.96833H23.8256C23.7663 9.62044 23.6939 9.27748 23.6054 8.94059H18.0271L21.8373 5.13083C21.4627 4.59574 21.0464 4.09251 20.5917 3.62622L16.3 7.91742C16.4156 8.69582 16.4674 9.14787 16.5196 9.96833Z" fill="#E7E7E7"/>
<path d="M15.7113 18.7978L18.7996 21.8864C19.3132 21.5327 19.7969 21.1389 20.2483 20.7115L16.1862 16.6492C16.0565 17.4005 15.9027 18.1261 15.7113 18.7978Z" fill="#E7E7E7"/>
<path d="M14.2145 22.4103V23.7925C14.5627 23.7277 14.9053 23.6473 15.2422 23.553V20.863C14.9394 21.4698 14.5967 21.9963 14.2145 22.4103Z" fill="#E7E7E7"/>
<path d="M16.2999 7.91739L20.5911 3.62618C20.2048 3.22941 19.7906 2.86015 19.3525 2.52002L15.9806 5.89247C16.1305 6.51887 16.1985 7.23586 16.2999 7.91739Z" fill="#D71F28"/>
<path d="M11.401 0.0147948C11.6009 0.00511738 11.8003 0 11.9997 0C11.7991 0 11.5994 0.00511738 11.401 0.0147948Z" fill="#D32030"/>
<path d="M11.9997 24C11.8002 24 11.6009 23.9945 11.4014 23.9849C11.5998 23.9949 11.7991 24 11.9997 24Z" fill="#D32030"/>
<path d="M11.9998 24C12.7569 24 13.4962 23.9267 14.2143 23.7923V22.4102C13.584 23.0934 12.8466 24 11.9998 24Z" fill="#D32030"/>
<path d="M23.8253 9.96826H16.6143C16.7098 11.4733 16.6983 13.0209 16.5798 14.5156H23.734C23.9072 13.7041 24 12.8632 24 12.0004C24 11.3072 23.9382 10.6293 23.8253 9.96826Z" fill="#D71F28"/>
<path d="M16.6005 14.7188C16.5338 15.4278 16.3015 15.9803 16.1859 16.6491L20.248 20.7113C20.6499 20.3304 21.0256 19.923 21.372 19.4905L17.425 15.5432L16.6005 14.7188Z" fill="#D71F28"/>
<path d="M14.2145 1.53643V0.207279C13.4966 0.0733154 12.7573 0 11.9999 0C12.8467 0 13.5841 0.853387 14.2145 1.53643Z" fill="#D32030"/>
<path d="M15.2419 21.3823C15.5665 20.7321 15.8448 19.9835 16.0779 19.1653L15.2419 18.3293V21.3823Z" fill="#29337A"/>
<path d="M16.1819 5.21428C15.9291 4.2472 15.6162 3.36802 15.2419 2.61865V6.15385L16.1819 5.21428Z" fill="#29337A"/>
<path d="M16.8333 14.9514C16.847 14.8066 16.8593 14.6613 16.871 14.5154H16.3973L16.8333 14.9514Z" fill="white"/>
<path d="M15.242 6.15356V2.61817C14.9392 2.01168 14.5966 1.49062 14.2142 1.07642V7.65838L16.2782 5.59445C16.2471 5.46561 16.2145 5.3394 16.1819 5.21359L15.242 6.15356Z" fill="white"/>
<path d="M14.2491 9.96828H16.9056C16.8535 9.14787 16.7705 8.3407 16.6551 7.5625L14.2491 9.96828Z" fill="white"/>
<path d="M14.2145 22.9234C14.5969 22.5088 14.9394 21.9881 15.2422 21.3816V18.3286L16.0782 19.1646C16.2699 18.4925 16.4308 17.7746 16.5608 17.0233L14.2145 14.6772L14.2145 22.9234Z" fill="white"/>
<path d="M14.2144 22.9234V14.6773L16.5605 17.0235C16.6759 16.3545 16.7667 15.6606 16.8331 14.9515L16.3971 14.5155H16.8708C16.9892 13.0207 17.0008 11.4731 16.9053 9.9681H14.2489L16.6547 7.56232C16.5533 6.88059 16.4279 6.22121 16.278 5.59461L14.2145 7.65854V1.07657C13.584 0.393329 12.8466 0 11.9998 0C11.8003 0 11.6009 0.00511738 11.4011 0.0147948C10.8108 0.0443337 10.232 0.11694 9.66698 0.228357V9.93268L3.38497 3.65082C2.99899 4.04911 2.63996 4.4735 2.31138 4.92201L6.32994 8.94057L7.35803 9.9683H0.1747C0.0621686 10.6292 0 11.3071 0 12.0002C0 12.8633 0.0932275 13.7039 0.266002 14.5155H9.63101L3.58961 20.5569C3.98522 20.9455 4.40642 21.3074 4.85229 21.6386L9.66683 16.824V23.7713C10.2318 23.8827 10.811 23.9553 11.4013 23.9849C11.6008 23.9945 11.8001 24 11.9996 24C12.8466 24 13.584 23.6067 14.2144 22.9234Z" fill="#E51D35"/>
</svg>
