<svg width="40" height="40" viewBox="0 0 40 40" fill="none" xmlns="http://www.w3.org/2000/svg">
<circle cx="20" cy="20" r="20" fill="#3C3A88"/>
<path d="M27.5 12.5H12.5V27.5H27.5V12.5Z" fill="#ECEFF1"/>
<path d="M20 21.5775L27.5 27.5V15.8075L20 21.5775Z" fill="#CFD8DC"/>
<path d="M28.125 12.5H27.5L20 18.4225L12.5 12.5H11.875C10.84 12.5 10 13.34 10 14.375V25.625C10 26.66 10.84 27.5 11.875 27.5H12.5V15.8075L20 21.5763L27.5 15.8063V27.5H28.125C29.16 27.5 30 26.66 30 25.625V14.375C30 13.34 29.16 12.5 28.125 12.5Z" fill="#F44336"/>
</svg>
