<?xml version="1.0" encoding="UTF-8"?>
<svg width="120px" height="40px" viewBox="0 0 120 40" version="1.1" xmlns="http://www.w3.org/2000/svg" xmlns:xlink="http://www.w3.org/1999/xlink">
    <!-- Generator: Sketch 57.1 (83088) - https://sketch.com -->
    <title>Google Play Badge US</title>
    <desc>Created with Sketch.</desc>
    <defs>
        <linearGradient x1="61.0339412%" y1="4.9481245%" x2="26.5026568%" y2="71.9074222%" id="linearGradient-1">
            <stop stop-color="#00A0FF" offset="0%"></stop>
            <stop stop-color="#00A1FF" offset="1%"></stop>
            <stop stop-color="#00BEFF" offset="26%"></stop>
            <stop stop-color="#00D2FF" offset="51%"></stop>
            <stop stop-color="#00DFFF" offset="76%"></stop>
            <stop stop-color="#00E3FF" offset="100%"></stop>
        </linearGradient>
        <linearGradient x1="107.684729%" y1="50%" x2="-130.640394%" y2="50%" id="linearGradient-2">
            <stop stop-color="#FFE000" offset="0%"></stop>
            <stop stop-color="#FFBD00" offset="41%"></stop>
            <stop stop-color="#FFA500" offset="78%"></stop>
            <stop stop-color="#FF9C00" offset="100%"></stop>
        </linearGradient>
        <linearGradient x1="86.219293%" y1="30.9112842%" x2="-50.1497903%" y2="135.987548%" id="linearGradient-3">
            <stop stop-color="#FF3A44" offset="0%"></stop>
            <stop stop-color="#C31162" offset="100%"></stop>
        </linearGradient>
        <linearGradient x1="-18.7537448%" y1="-11.831554%" x2="42.1210306%" y2="35.0948125%" id="linearGradient-4">
            <stop stop-color="#32A071" offset="0%"></stop>
            <stop stop-color="#2DA771" offset="7%"></stop>
            <stop stop-color="#15CF74" offset="48%"></stop>
            <stop stop-color="#06E775" offset="80%"></stop>
            <stop stop-color="#00F076" offset="100%"></stop>
        </linearGradient>
    </defs>
    <g id="Screens" stroke="none" stroke-width="1" fill="none" fill-rule="evenodd">
        <g id="KS_Swap_light" transform="translate(-863.000000, -2419.000000)" fill-rule="nonzero">
            <g id="Google-Play-Badge-US" transform="translate(863.000000, 2419.000000)">
                <rect id="Background-Black" fill="#000000" x="0" y="0" width="120" height="40" rx="3"></rect>
                <path d="M38.18,26.105 L43.445,26.105 C43.4750002,26.2250006 43.4999999,26.3699992 43.52,26.54 C43.5400001,26.7100009 43.55,26.8799992 43.55,27.05 C43.55,27.7400035 43.4450011,28.389997 43.235,29 C43.024999,29.6100031 42.6950023,30.1549976 42.245,30.635 C41.7649976,31.1450026 41.1900034,31.5399986 40.52,31.82 C39.8499967,32.1000014 39.0850043,32.24 38.225,32.24 C37.4449961,32.24 36.7100035,32.1000014 36.02,31.82 C35.3299966,31.5399986 34.7300026,31.1500025 34.22,30.65 C33.7099975,30.1499975 33.3050015,29.5575034 33.005,28.8725 C32.7049985,28.1874966 32.555,27.4400041 32.555,26.63 C32.555,25.819996 32.7049985,25.0725034 33.005,24.3875 C33.3050015,23.7024966 33.7099975,23.1100025 34.22,22.61 C34.7300026,22.1099975 35.3299966,21.7200014 36.02,21.44 C36.7100035,21.1599986 37.4449961,21.02 38.225,21.02 C39.0950044,21.02 39.8724966,21.1699985 40.5575,21.47 C41.2425034,21.7700015 41.8299976,22.1849974 42.32,22.715 L40.925,24.08 C40.5749983,23.7099982 40.1850022,23.427501 39.755,23.2325 C39.3249979,23.037499 38.810003,22.94 38.21,22.94 C37.7199976,22.94 37.2550022,23.0274991 36.815,23.2025 C36.3749978,23.3775009 35.9900017,23.6249984 35.66,23.945 C35.3299984,24.2650016 35.067501,24.6524977 34.8725,25.1075 C34.677499,25.5625023 34.58,26.0699972 34.58,26.63 C34.58,27.1900028 34.677499,27.6974977 34.8725,28.1525 C35.067501,28.6075023 35.3324983,28.9949984 35.6675,29.315 C36.0025017,29.6350016 36.3899978,29.8824991 36.83,30.0575 C37.2700022,30.2325009 37.7399975,30.32 38.24,30.32 C38.8100029,30.32 39.292498,30.2375008 39.6875,30.0725 C40.082502,29.9074992 40.4199986,29.6950013 40.7,29.435 C40.900001,29.2549991 41.0724993,29.0275014 41.2175,28.7525 C41.3625007,28.4774986 41.4749996,28.1700017 41.555,27.83 L38.18,27.83 L38.18,26.105 Z M48.195,24.41 C48.7650029,24.41 49.2874976,24.507499 49.7625,24.7025 C50.2375024,24.897501 50.6474983,25.1674983 50.9925,25.5125 C51.3375017,25.8575017 51.607499,26.2699976 51.8025,26.75 C51.997501,27.2300024 52.095,27.7549972 52.095,28.325 C52.095,28.8950029 51.997501,29.4199976 51.8025,29.9 C51.607499,30.3800024 51.3375017,30.7924983 50.9925,31.1375 C50.6474983,31.4825017 50.2375024,31.752499 49.7625,31.9475 C49.2874976,32.142501 48.7650029,32.24 48.195,32.24 C47.6249972,32.24 47.1025024,32.142501 46.6275,31.9475 C46.1524976,31.752499 45.7425017,31.4825017 45.3975,31.1375 C45.0524983,30.7924983 44.782501,30.3800024 44.5875,29.9 C44.392499,29.4199976 44.295,28.8950029 44.295,28.325 C44.295,27.7549972 44.392499,27.2300024 44.5875,26.75 C44.782501,26.2699976 45.0524983,25.8575017 45.3975,25.5125 C45.7425017,25.1674983 46.1524976,24.897501 46.6275,24.7025 C47.1025024,24.507499 47.6249972,24.41 48.195,24.41 Z M48.195,30.425 C48.4450013,30.425 48.6874988,30.3775005 48.9225,30.2825 C49.1575012,30.1874995 49.3649991,30.0500009 49.545,29.87 C49.7250009,29.6899991 49.8674995,29.4700013 49.9725,29.21 C50.0775005,28.9499987 50.13,28.6550017 50.13,28.325 C50.13,27.9949984 50.0775005,27.7000013 49.9725,27.44 C49.8674995,27.1799987 49.7250009,26.9600009 49.545,26.78 C49.3649991,26.5999991 49.1575012,26.4625005 48.9225,26.3675 C48.6874988,26.2724995 48.4450013,26.225 48.195,26.225 C47.9349987,26.225 47.6900012,26.2724995 47.46,26.3675 C47.2299989,26.4625005 47.0250009,26.5999991 46.845,26.78 C46.6649991,26.9600009 46.5225005,27.1799987 46.4175,27.44 C46.3124995,27.7000013 46.26,27.9949984 46.26,28.325 C46.26,28.6550017 46.3124995,28.9499987 46.4175,29.21 C46.5225005,29.4700013 46.6649991,29.6899991 46.845,29.87 C47.0250009,30.0500009 47.2299989,30.1874995 47.46,30.2825 C47.6900012,30.3775005 47.9349987,30.425 48.195,30.425 Z M56.635,24.41 C57.2050029,24.41 57.7274976,24.507499 58.2025,24.7025 C58.6775024,24.897501 59.0874983,25.1674983 59.4325,25.5125 C59.7775017,25.8575017 60.047499,26.2699976 60.2425,26.75 C60.437501,27.2300024 60.535,27.7549972 60.535,28.325 C60.535,28.8950029 60.437501,29.4199976 60.2425,29.9 C60.047499,30.3800024 59.7775017,30.7924983 59.4325,31.1375 C59.0874983,31.4825017 58.6775024,31.752499 58.2025,31.9475 C57.7274976,32.142501 57.2050029,32.24 56.635,32.24 C56.0649972,32.24 55.5425024,32.142501 55.0675,31.9475 C54.5924976,31.752499 54.1825017,31.4825017 53.8375,31.1375 C53.4924983,30.7924983 53.222501,30.3800024 53.0275,29.9 C52.832499,29.4199976 52.735,28.8950029 52.735,28.325 C52.735,27.7549972 52.832499,27.2300024 53.0275,26.75 C53.222501,26.2699976 53.4924983,25.8575017 53.8375,25.5125 C54.1825017,25.1674983 54.5924976,24.897501 55.0675,24.7025 C55.5425024,24.507499 56.0649972,24.41 56.635,24.41 Z M56.635,30.425 C56.8850013,30.425 57.1274988,30.3775005 57.3625,30.2825 C57.5975012,30.1874995 57.8049991,30.0500009 57.985,29.87 C58.1650009,29.6899991 58.3074995,29.4700013 58.4125,29.21 C58.5175005,28.9499987 58.57,28.6550017 58.57,28.325 C58.57,27.9949984 58.5175005,27.7000013 58.4125,27.44 C58.3074995,27.1799987 58.1650009,26.9600009 57.985,26.78 C57.8049991,26.5999991 57.5975012,26.4625005 57.3625,26.3675 C57.1274988,26.2724995 56.8850013,26.225 56.635,26.225 C56.3749987,26.225 56.1300012,26.2724995 55.9,26.3675 C55.6699989,26.4625005 55.4650009,26.5999991 55.285,26.78 C55.1049991,26.9600009 54.9625005,27.1799987 54.8575,27.44 C54.7524995,27.7000013 54.7,27.9949984 54.7,28.325 C54.7,28.6550017 54.7524995,28.9499987 54.8575,29.21 C54.9625005,29.4700013 55.1049991,29.6899991 55.285,29.87 C55.4650009,30.0500009 55.6699989,30.1874995 55.9,30.2825 C56.1300012,30.3775005 56.3749987,30.425 56.635,30.425 Z M64.985,35.48 C64.4649974,35.48 64.002502,35.4125007 63.5975,35.2775 C63.192498,35.1424993 62.8400015,34.9675011 62.54,34.7525 C62.2399985,34.5374989 61.990001,34.3000013 61.79,34.04 C61.589999,33.7799987 61.4450005,33.5200013 61.355,33.26 L63.23,32.51 C63.3700007,32.900002 63.5999984,33.2024989 63.92,33.4175 C64.2400016,33.6325011 64.5949981,33.74 64.985,33.74 C65.6050031,33.74 66.0949982,33.5475019 66.455,33.1625 C66.8150018,32.7774981 66.995,32.2400035 66.995,31.55 L66.995,31.04 L66.875,31.04 C66.6449989,31.3600016 66.3425019,31.6124991 65.9675,31.7975 C65.5924981,31.9825009 65.1500026,32.075 64.64,32.075 C64.1999978,32.075 63.7725021,31.9850009 63.3575,31.805 C62.9424979,31.6249991 62.5750016,31.3675017 62.255,31.0325 C61.9349984,30.6974983 61.675,30.2950024 61.475,29.825 C61.274999,29.3549977 61.175,28.8300029 61.175,28.25 C61.175,27.6699971 61.274999,27.1425024 61.475,26.6675 C61.675,26.1924976 61.9349984,25.7875017 62.255,25.4525 C62.5750016,25.1174983 62.9424979,24.8600009 63.3575,24.68 C63.7725021,24.4999991 64.1999978,24.41 64.64,24.41 C65.1500026,24.41 65.5924981,24.5024991 65.9675,24.6875 C66.3425019,24.8725009 66.6449989,25.1249984 66.875,25.445 L66.995,25.445 L66.995,24.65 L68.87,24.65 L68.87,31.475 C68.87,32.0950031 68.775001,32.6524975 68.585,33.1475 C68.3949991,33.6425025 68.1300017,34.0624983 67.79,34.4075 C67.4499983,34.7525017 67.0425024,35.0174991 66.5675,35.2025 C66.0924976,35.3875009 65.5650029,35.48 64.985,35.48 Z M65.06,30.305 C65.3000012,30.305 65.5374988,30.2600005 65.7725,30.17 C66.0075012,30.0799996 66.2149991,29.9475009 66.395,29.7725 C66.5750009,29.5974991 66.7199995,29.3825013 66.83,29.1275 C66.9400006,28.8724987 66.995,28.5800017 66.995,28.25 C66.995,27.9199984 66.9400006,27.6250013 66.83,27.365 C66.7199995,27.1049987 66.5750009,26.8875009 66.395,26.7125 C66.2149991,26.5374991 66.0075012,26.4050005 65.7725,26.315 C65.5374988,26.2249996 65.3000012,26.18 65.06,26.18 C64.8199988,26.18 64.5850012,26.2249996 64.355,26.315 C64.1249989,26.4050005 63.9200009,26.5399991 63.74,26.72 C63.5599991,26.9000009 63.4150006,27.1174987 63.305,27.3725 C63.1949995,27.6275013 63.14,27.9199984 63.14,28.25 C63.14,28.5800017 63.1949995,28.8724987 63.305,29.1275 C63.4150006,29.3825013 63.5599991,29.5974991 63.74,29.7725 C63.9200009,29.9475009 64.1249989,30.0799996 64.355,30.17 C64.5850012,30.2600005 64.8199988,30.305 65.06,30.305 Z M70.35,32 L70.35,21.26 L72.315,21.26 L72.315,32 L70.35,32 Z M81.1461722,28.1597784 C81.1517236,28.8493971 80.9980185,29.4981629 80.6850523,30.1060954 C80.3720862,30.7140278 79.8562085,31.2254874 79.1374038,31.6404895 C78.6524272,31.9204909 78.155514,32.0948016 77.6466494,32.163427 C77.1377848,32.2320524 76.6443042,32.2023108 76.1661929,32.0742013 C75.6880817,31.9460917 75.2458442,31.7251085 74.8394672,31.4112448 C74.4330902,31.0973812 74.0874062,30.6936369 73.8024047,30.2 C73.5374034,29.7410042 73.3684275,29.2583313 73.295472,28.7519667 C73.2225164,28.2456021 73.2445129,27.7537065 73.3614622,27.2762651 C73.4784114,26.7988237 73.6857345,26.352926 73.9834378,25.9385585 C74.2811411,25.5241911 74.6724753,25.1770119 75.1574519,24.8970105 C75.6684094,24.6020091 76.1718178,24.4239483 76.6676919,24.362823 C77.1635661,24.3016976 77.6319812,24.3430241 78.0729513,24.4868036 C78.5139213,24.630583 78.9211832,24.865986 79.2947492,25.1930196 C79.6683151,25.5200532 79.9925939,25.9217221 80.2675953,26.3980385 L80.3575953,26.553923 C80.3789351,26.6108849 80.4021048,26.6610158 80.4271049,26.7043172 C80.4434447,26.7526188 80.4666144,26.8027496 80.4966145,26.8547114 L75.7031639,29.6222114 C75.8878058,29.8620203 76.0880009,30.04377 76.3037552,30.1674661 C76.5195094,30.2911621 76.7437411,30.3695459 76.976457,30.4026198 C77.2091729,30.4356936 77.4370407,30.4253764 77.6600674,30.3716678 C77.8830941,30.3179592 78.0941977,30.2336058 78.2933846,30.1186053 C78.683098,29.8936041 78.9544397,29.6185893 79.107418,29.2935524 C79.2603962,28.9685156 79.3329964,28.6292675 79.3252207,28.2757978 L81.1461722,28.1597784 Z M78.1753169,26.584106 C78.1016562,26.4765222 77.9923513,26.3721995 77.8473986,26.2711349 C77.702446,26.1700704 77.5321849,26.0951673 77.3366102,26.0464235 C77.1410356,25.9976797 76.9276531,25.9880869 76.6964565,26.0176447 C76.4652599,26.0472026 76.2197608,26.1369806 75.9599519,26.2869813 C75.5962194,26.4969824 75.3357926,26.7859025 75.1786637,27.1537505 C75.0215348,27.5215984 74.9941793,27.9242129 75.0965966,28.361606 L78.1753169,26.584106 Z M85.2,32 L85.2,21.26 L88.98,21.26 C89.4900026,21.26 89.9674978,21.3424992 90.4125,21.5075 C90.8575022,21.6725008 91.2449984,21.9049985 91.575,22.205 C91.9050017,22.5050015 92.1649991,22.8624979 92.355,23.2775 C92.545001,23.6925021 92.64,24.1499975 92.64,24.65 C92.64,25.1600026 92.545001,25.6224979 92.355,26.0375 C92.1649991,26.4525021 91.9050017,26.8099985 91.575,27.11 C91.2449984,27.4100015 90.8575022,27.6424992 90.4125,27.8075 C89.9674978,27.9725008 89.4900026,28.055 88.98,28.055 L87.225,28.055 L87.225,32 L85.2,32 Z M89.01,26.135 C89.5400027,26.135 89.9399987,25.9850015 90.21,25.685 C90.4800014,25.3849985 90.615,25.040002 90.615,24.65 C90.615,24.4599991 90.5825003,24.2750009 90.5175,24.095 C90.4524997,23.9149991 90.3525007,23.7575007 90.2175,23.6225 C90.0824993,23.4874993 89.915001,23.3800004 89.715,23.3 C89.514999,23.2199996 89.2800014,23.18 89.01,23.18 L87.225,23.18 L87.225,26.135 L89.01,26.135 Z M93.715,32 L93.715,21.26 L95.68,21.26 L95.68,32 L93.715,32 Z M101.615,31.22 L101.495,31.22 C101.264999,31.5000014 100.987502,31.739999 100.6625,31.94 C100.337498,32.140001 99.9200026,32.24 99.41,32.24 C99.0299981,32.24 98.6725017,32.1775006 98.3375,32.0525 C98.0024983,31.9274994 97.7100013,31.7550011 97.46,31.535 C97.2099988,31.3149989 97.0150007,31.0500016 96.875,30.74 C96.7349993,30.4299985 96.665,30.0900019 96.665,29.72 C96.665,29.3399981 96.7399993,28.9975015 96.89,28.6925 C97.0400008,28.3874985 97.2499987,28.1250011 97.52,27.905 C97.7900014,27.6849989 98.1074982,27.5175006 98.4725,27.4025 C98.8375018,27.2874994 99.2349979,27.23 99.665,27.23 C100.145002,27.23 100.539998,27.2674996 100.85,27.3425 C101.160002,27.4175004 101.414999,27.4949996 101.615,27.575 L101.615,27.35 C101.615,26.9599981 101.460002,26.6375013 101.15,26.3825 C100.839998,26.1274987 100.455002,26 99.995,26 C99.3149966,26 98.7400024,26.2849972 98.27,26.855 L96.845,25.88 C97.6250039,24.8999951 98.6899933,24.41 100.04,24.41 C101.180006,24.41 102.049997,24.6774973 102.65,25.2125 C103.250003,25.7475027 103.55,26.5399948 103.55,27.59 L103.55,32 L101.615,32 L101.615,31.22 Z M101.615,29.015 C101.384999,28.9049995 101.147501,28.8175003 100.9025,28.7525 C100.657499,28.6874997 100.390001,28.655 100.1,28.655 C99.63,28.655 99.2675013,28.757499 99.0125,28.9625 C98.7574987,29.167501 98.63,29.4199985 98.63,29.72 C98.63,30.0200015 98.7524988,30.2599991 98.9975,30.44 C99.2425012,30.6200009 99.5249984,30.71 99.845,30.71 C100.105001,30.71 100.344999,30.6625005 100.565,30.5675 C100.785001,30.4724995 100.972499,30.3475008 101.1275,30.1925 C101.282501,30.0374992 101.4025,29.857501 101.4875,29.6525 C101.5725,29.447499 101.615,29.2350011 101.615,29.015 Z M107.07,31.64 L103.98,24.65 L106.215,24.65 L108.075,29.105 L108.18,29.105 L109.965,24.65 L112.155,24.65 L107.55,35.24 L105.435,35.24 L107.07,31.64 Z" id="GooglePlay" fill="#FFFFFF"></path>
                <path d="M39.42,10.24 C39.4543536,10.981231 39.1832676,11.7041269 38.67,12.24 C38.0964498,12.8358032 37.2964838,13.1594258 36.47,13.13 C35.2023403,13.1200788 34.0641482,12.3512162 33.5816918,11.1789127 C33.0992355,10.0066092 33.3665355,8.65932246 34.26,7.76 C34.840533,7.16732597 35.6405789,6.84151543 36.47,6.86 C36.8927576,6.85859143 37.3113359,6.94366832 37.7,7.11 C38.0618545,7.25595356 38.3839841,7.48555656 38.64,7.78 L38.11,8.31 C37.7053468,7.82867645 37.0978848,7.56568987 36.47,7.6 C35.8388494,7.59690387 35.2336793,7.85108766 34.794036,8.30393914 C34.3543927,8.75679062 34.1182283,9.36921739 34.14,10 C34.1266019,10.9531897 34.6879765,11.8208395 35.5629333,12.1992583 C36.43789,12.5776771 37.4545926,12.3925456 38.14,11.73 C38.4477095,11.3965366 38.625183,10.9635013 38.64,10.51 L36.47,10.51 L36.47,9.79 L39.38,9.79 C39.4066731,9.93851412 39.4200594,10.0891096 39.42,10.24 L39.42,10.24 Z M44,7.74 L41.3,7.74 L41.3,9.64 L43.76,9.64 L43.76,10.36 L41.3,10.36 L41.3,12.26 L44,12.26 L44,13 L40.5,13 L40.5,7 L44,7 L44,7.74 Z M47.28,13 L46.51,13 L46.51,7.74 L44.83,7.74 L44.83,7 L49,7 L49,7.74 L47.28,7.74 L47.28,13 Z M51.94,13 L51.94,7 L52.71,7 L52.71,13 L51.94,13 Z M56.13,13 L55.36,13 L55.36,7.74 L53.68,7.74 L53.68,7 L57.8,7 L57.8,7.74 L56.13,7.74 L56.13,13 Z M65.61,12.22 C64.3929898,13.4302279 62.4270102,13.4302279 61.21,12.22 C60.0302689,10.9712339 60.0302689,9.01876613 61.21,7.77 C61.7919984,7.18374669 62.5839158,6.85403297 63.41,6.85403297 C64.2360842,6.85403297 65.0280016,7.18374669 65.61,7.77 C66.7947655,9.01675984 66.7947655,10.9732402 65.61,12.22 L65.61,12.22 Z M61.78,11.72 C62.6813239,12.6175651 64.1386761,12.6175651 65.04,11.72 C65.9251983,10.7441711 65.9251983,9.25582886 65.04,8.28 C64.1386761,7.38243493 62.6813239,7.38243493 61.78,8.28 C60.8948017,9.25582886 60.8948017,10.7441711 61.78,11.72 L61.78,11.72 Z M67.58,13 L67.58,7 L68.52,7 L71.44,11.67 L71.44,7 L72.21,7 L72.21,13 L71.41,13 L68.36,8.11 L68.36,13 L67.58,13 Z" id="GET-IT-ON" stroke="#FFFFFF" stroke-width="0.2" fill="#FFFFFF"></path>
                <g id="Icon" transform="translate(7.000000, 8.000000)">
                    <path d="M1.29600005,0.486000019 C1.0026585,0.837997535 0.854598319,1.28861548 0.882000035,1.74600007 L0.882000035,21.6540009 C0.854598319,22.1113854 1.0026585,22.5620034 1.29600005,22.9140009 L1.35900005,22.9770009 L12.5100005,11.8350005 L12.5100005,11.5740005 L1.35900005,0.423000017 L1.29600005,0.486000019 Z" id="Shape" fill="url(#linearGradient-1)"></path>
                    <path d="M16.2000006,15.5520006 L12.5100005,11.8350005 L12.5100005,11.5740005 L16.2000006,7.84800031 L16.2810006,7.89300031 L20.7000008,10.4040004 C21.9600009,11.1150004 21.9600009,12.2850005 20.7000008,13.0050005 L16.2990006,15.5070006 L16.2000006,15.5520006 Z" id="Shape" fill="url(#linearGradient-2)"></path>
                    <path d="M16.3080006,15.4980006 L12.5100005,11.7000005 L1.29600005,22.9140009 C1.82584603,23.3797711 2.61218617,23.402454 3.16800013,22.9680009 L16.3170006,15.4980006" id="Shape" fill="url(#linearGradient-3)"></path>
                    <path d="M16.3080006,7.90200031 L3.15900013,0.432000017 C2.60318617,-0.00245304828 1.81684603,0.0202298404 1.28700005,0.486000019 L12.5100005,11.7000005 L16.3080006,7.90200031 Z" id="Shape" fill="url(#linearGradient-4)"></path>
                    <path d="M16.2000006,15.4170006 L3.15900013,22.8420009 C2.62533479,23.2410037 1.89266539,23.2410037 1.35900005,22.8420009 L1.29600005,22.9050009 L1.35900005,22.9680009 C1.89166128,23.3700122 2.6263389,23.3700122 3.15900013,22.9680009 L16.3080006,15.4980006 L16.2000006,15.4170006 Z" id="Shape" fill="#000000" opacity="0.2"></path>
                    <path d="M1.29600005,22.7880009 C1.0026585,22.4360034 0.854598319,21.9853854 0.882000035,21.5280009 L0.882000035,21.6630009 C0.854598319,22.1203855 1.0026585,22.5710034 1.29600005,22.9230009 L1.35900005,22.8600009 L1.29600005,22.7880009 Z M20.7000006,12.8700005 L16.2000006,15.4170006 L16.2810006,15.4980006 L20.7000006,12.9960005 C21.2103639,12.7562524 21.5536224,12.2619602 21.6000009,11.7000005 C21.4974274,12.2083546 21.1650362,12.6404632 20.7000006,12.8700005 Z" id="Shape" fill="#000000" opacity="0.12"></path>
                    <path d="M3.15900013,0.558000022 L20.7000008,10.5300004 C21.1650362,10.7595377 21.4974274,11.1916463 21.6000009,11.7000005 C21.5536224,11.1380407 21.2103639,10.6437485 20.7000008,10.4040004 L3.15900013,0.432000017 C1.89900008,-0.279000011 0.873000035,0.315000013 0.873000035,1.75500007 L0.873000035,1.89000008 C0.900000036,0.441000018 1.90800008,-0.153000006 3.15900013,0.558000022 L3.15900013,0.558000022 Z" id="Shape" fill="#FFFFFF" opacity="0.25"></path>
                </g>
            </g>
        </g>
    </g>
</svg>