<?xml version="1.0" encoding="UTF-8"?>
<svg width="100px" height="100px" viewBox="0 0 100 100" version="1.1" xmlns="http://www.w3.org/2000/svg" xmlns:xlink="http://www.w3.org/1999/xlink">
    <!-- Generator: Sketch 64 (93537) - https://sketch.com -->
    <title>Artboard</title>
    <desc>Created with Sketch.</desc>
    <g id="Artboard" stroke="none" stroke-width="1" fill="none" fill-rule="evenodd">
        <path d="M42.3716081,35.1795455 L42.3716081,26.1204545 C42.3716081,24.25 43.881293,22.7272727 45.7384988,22.7272727 C47.5957046,22.7272727 49.1053895,24.25 49.1053895,26.1204545 L49.1053895,36.3159091 L49.1053895,40.2522727 L49.1053895,40.3818182 L49.1053895,62.9795455 C49.1053895,64.2363636 50.1163593,65.2522727 51.3620186,65.2522727 C52.6099346,65.2522727 53.6186478,64.2363636 53.6186478,62.9795455 L53.6186478,44.9272727 C54.7131129,44.9272727 55.7917817,44.5272727 56.635761,43.7613636 C56.9291228,43.4977273 57.4255812,43.1818182 58.1319061,43.1818182 C59.3256629,43.1818182 60.2915002,44.0863636 60.3817654,45.2863636 C60.4065883,45.5954545 60.4945968,45.8818182 60.5758355,46.1727273 C60.4584908,46.4477273 60.3885353,46.75 60.3885353,47.0704545 L60.3885353,65.2522727 C60.3885353,66.5090909 61.3995051,67.525 62.6451644,67.525 C63.8930803,67.525 64.9017936,66.5090909 64.9017936,65.2522727 L64.9017936,49.4863636 C65.9962587,49.4818182 67.0704142,49.0795455 67.9121369,48.3136364 C68.2054986,48.0454545 68.7042137,47.7272727 69.4150519,47.7272727 C70.6810208,47.7272727 71.671681,48.7340909 71.671681,50.0204545 L71.671681,53.8886364 L71.671681,54.0113636 L71.671681,67.525 C71.671681,68.7818182 72.6826509,69.7977273 73.9283102,69.7977273 C75.1762261,69.7977273 76.1849393,68.7818182 76.1849393,67.525 L76.1849393,58.5568182 C77.2748912,58.5568182 78.3513033,58.1590909 79.1952826,57.3977273 C79.4886444,57.1340909 79.9873595,56.8181818 80.6981976,56.8181818 C81.9438569,56.8181818 82.9548268,57.8363636 82.9548268,59.0886364 L82.9548268,75.0181818 C82.9548268,86.2863636 73.8515848,95.4545455 62.6632174,95.4545455 C55.29081,95.4545455 48.4870731,91.4181818 44.9058026,84.9159091 C44.8019977,84.7272727 44.6756265,84.5340909 44.544742,84.3636364 L44.4883262,84.2863636 L24.8263164,55.7340909 C23.9484877,54.4613636 24.1357879,52.2227273 25.1760939,51.1613636 C25.6025968,50.7386364 26.1622409,50.5045455 26.7557343,50.5045455 C27.3514844,50.5045455 27.9133851,50.7431818 28.3421446,51.175 L34.6674762,57.5409091 C35.5317651,58.4113636 36.6849026,58.8727273 37.8583498,58.8727273 C38.4405601,58.8727273 39.0272837,58.7590909 39.5869277,58.5272727 C41.2726297,57.8227273 42.3716081,56.1659091 42.3716081,54.3272727 L42.3716081,35.1795455 Z M33.2412865,31.8181818 L33.2412865,31.8204545 L33.2412865,31.8181818 Z M37.8583498,31.8204545 L37.8583498,54.3272727 L31.5330183,47.9590909 C30.2083769,46.625 28.4820556,45.9590909 26.7557343,45.9590909 C25.0361829,45.9590909 23.3211448,46.6181818 22.0032733,47.9295455 C19.4036366,50.575 18.9906734,55.2409091 21.1186747,58.3272727 L40.7806845,86.8772727 C40.8393569,86.9590909 40.8980292,87.0431818 40.9589582,87.1227273 C45.1923945,94.8045455 53.325286,100 62.6632174,100 C76.3654697,100 87.4680851,88.8136364 87.4680851,75.0181818 L87.4680851,75.0090909 L87.4680851,75.0022727 L87.4680851,59.0886364 C87.4680851,55.3227273 84.4374322,52.2727273 80.6981976,52.2727273 C78.9673631,52.2727273 77.385466,52.9295455 76.1849393,54.0113636 L76.1849393,53.8886364 L76.1849393,50.0204545 C76.1849393,46.2181818 73.1542864,43.1818182 69.4150519,43.1818182 C67.6751908,43.1818182 66.0842672,43.8477273 64.8837405,44.9431818 C64.6152017,41.3954545 61.6951235,38.6363636 58.1319061,38.6363636 C56.4010715,38.6363636 54.8191745,39.2954545 53.6186478,40.3818182 L53.6186478,40.2522727 L53.6186478,31.8204545 L37.8583498,31.8204545 Z M58.3485425,31.8204545 L58.3485425,31.8181818 L58.3485425,31.8204545 Z M45.7384988,18.1818182 C50.0915364,18.1818182 53.6186478,21.7454545 53.6186478,26.1204545 L53.6186478,26.1204545 L53.6186478,31.8181818 L37.8583498,31.8181818 L37.8583498,26.1204545 C37.8583498,21.7363636 41.3944877,18.1818182 45.7384988,18.1818182 Z M69.408959,0 C78.1376005,0 85.2121329,7.14090909 85.2121329,15.9090909 C85.2121329,24.6954545 78.1556536,31.8181818 69.408959,31.8181818 L69.408959,31.8181818 L58.3492195,31.8181818 L58.3492195,27.2727273 L69.408959,27.2727273 C75.6575651,27.2727273 80.6988746,22.1931818 80.6988746,15.9090909 C80.6988746,9.64545455 75.6395121,4.54545455 69.408959,4.54545455 L69.408959,4.54545455 L28.803174,4.54545455 C22.5545678,4.54545455 17.5132583,9.625 17.5132583,15.9090909 C17.5132583,22.1727273 22.5748775,27.2727273 28.803174,27.2727273 L28.803174,27.2727273 L33.2419635,27.2727273 L33.2419635,31.8181818 L28.803174,31.8181818 C20.0745324,31.8181818 13,24.6772727 13,15.9090909 C13,7.12272727 20.0564794,0 28.803174,0 L28.803174,0 Z" id="UX" fill="#2A8D51"></path>
    </g>
</svg>