<svg width="88" height="88" viewBox="0 0 88 88" fill="none" xmlns="http://www.w3.org/2000/svg">
<rect x="23.9771" y="0.518311" width="67.5589" height="67.5589" rx="16" transform="rotate(20.7876 23.9771 0.518311)" fill="#B0AFCD"/>
<rect y="19.5183" width="67.5589" height="67.5589" rx="16" fill="url(#paint0_linear)"/>
<g clip-path="url(#clip0)">
<path d="M52.75 54.6121H49.625C48.9778 54.6121 48.4531 54.0874 48.4531 53.4402C48.4531 52.793 48.9778 52.2683 49.625 52.2683H52.75C53.3972 52.2683 53.9219 52.793 53.9219 53.4402C53.9219 54.0874 53.3972 54.6121 52.75 54.6121Z" fill="black"/>
<path d="M18.375 54.6121H15.25C14.6028 54.6121 14.0781 54.0874 14.0781 53.4402C14.0781 52.793 14.6028 52.2683 15.25 52.2683H18.375C19.0222 52.2683 19.5469 52.793 19.5469 53.4402C19.5469 54.0874 19.0222 54.6121 18.375 54.6121Z" fill="black"/>
<path d="M47.5328 46.7998C47.1278 46.7998 46.7339 46.5896 46.5169 46.2136C46.1932 45.6532 46.3852 44.9364 46.9458 44.6128L49.6521 43.0503C50.2126 42.7266 50.9293 42.9187 51.2529 43.4793C51.5766 44.0397 51.3845 44.7565 50.824 45.08L48.1176 46.6425C47.9331 46.7491 47.7316 46.7998 47.5328 46.7998Z" fill="black"/>
<path d="M41.8116 41.0806C41.6128 41.0806 41.4113 41.03 41.2268 40.9233C40.6662 40.5997 40.4742 39.883 40.7979 39.3226L42.3604 36.6162C42.684 36.0556 43.4006 35.8636 43.9612 36.1873C44.5217 36.5109 44.7137 37.2276 44.3901 37.7881L42.8276 40.4944C42.6105 40.8704 42.2166 41.0806 41.8116 41.0806Z" fill="black"/>
<path d="M34 38.9871C33.3528 38.9871 32.8281 38.4624 32.8281 37.8152V34.6902C32.8281 34.043 33.3528 33.5183 34 33.5183C34.6472 33.5183 35.1719 34.043 35.1719 34.6902V37.8152C35.1719 38.4624 34.6472 38.9871 34 38.9871Z" fill="black"/>
<path d="M26.1888 41.0806C25.7838 41.0806 25.3899 40.8704 25.1729 40.4944L23.6104 37.7881C23.2867 37.2276 23.4787 36.5108 24.0393 36.1873C24.5998 35.8636 25.3165 36.0556 25.6401 36.6162L27.2026 39.3225C27.5262 39.883 27.3342 40.5998 26.7737 40.9233C26.5891 41.0299 26.3876 41.0806 26.1888 41.0806Z" fill="black"/>
<path d="M20.4672 46.7998C20.2683 46.7998 20.0669 46.7492 19.8823 46.6426L17.176 45.0801C16.6154 44.7565 16.4234 44.0398 16.7471 43.4793C17.0707 42.9187 17.7874 42.7266 18.3479 43.0504L21.0542 44.6129C21.6147 44.9365 21.8068 45.6532 21.4831 46.2137C21.2661 46.5897 20.8722 46.7998 20.4672 46.7998Z" fill="black"/>
<path d="M52.75 54.6121H49.625C48.9778 54.6121 48.4531 54.0874 48.4531 53.4402C48.4531 52.793 48.9778 52.2683 49.625 52.2683H52.75C53.3972 52.2683 53.9219 52.793 53.9219 53.4402C53.9219 54.0874 53.3972 54.6121 52.75 54.6121Z" fill="black"/>
<path d="M47.5328 46.7998C47.1278 46.7998 46.7339 46.5896 46.5169 46.2136C46.1932 45.6532 46.3852 44.9364 46.9458 44.6128L49.6521 43.0503C50.2126 42.7266 50.9293 42.9187 51.2529 43.4793C51.5766 44.0397 51.3845 44.7565 50.824 45.08L48.1176 46.6425C47.9331 46.7491 47.7316 46.7998 47.5328 46.7998Z" fill="black"/>
<path d="M41.8116 41.0806C41.6128 41.0806 41.4113 41.03 41.2268 40.9233C40.6662 40.5997 40.4742 39.883 40.7979 39.3226L42.3604 36.6162C42.684 36.0556 43.4006 35.8636 43.9612 36.1873C44.5217 36.5109 44.7137 37.2276 44.3901 37.7881L42.8276 40.4944C42.6105 40.8704 42.2166 41.0806 41.8116 41.0806Z" fill="black"/>
<path d="M34 38.9871C33.3528 38.9871 32.8281 38.4624 32.8281 37.8152V34.6902C32.8281 34.043 33.3528 33.5183 34 33.5183C34.6472 33.5183 35.1719 34.043 35.1719 34.6902V37.8152C35.1719 38.4624 34.6472 38.9871 34 38.9871Z" fill="black"/>
<path d="M26.1888 41.0806C25.7838 41.0806 25.3899 40.8704 25.1729 40.4944L23.6104 37.7881C23.2867 37.2276 23.4787 36.5108 24.0393 36.1873C24.5998 35.8636 25.3165 36.0556 25.6401 36.6162L27.2026 39.3225C27.5262 39.883 27.3342 40.5998 26.7737 40.9233C26.5891 41.0299 26.3876 41.0806 26.1888 41.0806Z" fill="black"/>
<path d="M24.5273 55.3933C25.9836 55.3933 27.1641 54.2128 27.1641 52.7566V53.5378C27.1641 54.9559 28.2836 56.112 29.687 56.1717C29.203 55.4021 28.9219 54.4926 28.9219 53.5183C28.9219 51.2779 30.403 49.377 32.4375 48.7432C32.9066 48.5971 33.4052 48.5183 33.9219 48.5183H37.7109H42.9844V45.53C42.9844 44.0738 41.8039 42.8933 40.3477 42.8933C38.8914 42.8933 37.7109 44.0738 37.7109 45.53V43.9675C37.7109 42.5113 36.5305 41.3308 35.0742 41.3308C33.618 41.3308 32.4375 42.5113 32.4375 43.9675V45.53C32.4375 44.0738 31.257 42.8933 29.8008 42.8933C28.3445 42.8933 27.1641 44.0738 27.1641 45.53V47.0925C27.1641 45.6363 25.9836 44.4558 24.5273 44.4558C23.0711 44.4558 21.8906 45.6363 21.8906 47.0925V52.7566C21.8906 54.2128 23.0711 55.3933 24.5273 55.3933Z" fill="black"/>
<path d="M42.5938 50.8621H33.9219C32.4548 50.8621 31.2656 52.0513 31.2656 53.5183C31.2656 54.9853 32.4548 56.1746 33.9219 56.1746H40.4484C38.449 56.8977 37.5156 58.2675 37.5156 60.4714C37.5156 61.1186 36.9909 61.6433 36.3438 61.6433C35.6966 61.6433 35.1719 61.1186 35.1719 60.4714C35.1719 59.7741 35.2463 59.1225 35.3919 58.5183H33.9219C33.1863 58.5183 32.488 58.3574 31.8585 58.0709C31.2309 58.3574 30.5346 58.5183 29.8008 58.5183C28.5591 58.5183 27.423 58.0605 26.5499 57.3062C25.9314 57.5823 25.2473 57.7371 24.5273 57.7371C23.5595 57.7371 22.6559 57.4586 21.8906 56.9789V62.4463C21.8906 64.7974 23.071 66.9339 25.0156 68.1824V72.3464C25.0156 72.9936 25.5403 73.5183 26.1875 73.5183H41.8125C42.4597 73.5183 42.9844 72.9936 42.9844 72.3464V68.1824C42.9844 68.1824 42.9844 68.1822 42.9844 68.1821C44.9288 66.9335 46.1094 64.7973 46.1094 62.4463V54.3777C46.1094 52.436 44.5354 50.8621 42.5938 50.8621Z" fill="black"/>
</g>
<defs>
<linearGradient id="paint0_linear" x1="6" y1="24.5183" x2="57" y2="87.5183" gradientUnits="userSpaceOnUse">
<stop stop-color="#FF98EE"/>
<stop offset="1" stop-color="#B45CFB"/>
</linearGradient>
<clipPath id="clip0">
<rect width="40" height="40" fill="white" transform="translate(14 33.5183)"/>
</clipPath>
</defs>
</svg>
