<?xml version="1.0" encoding="UTF-8"?>
<svg width="100px" height="100px" viewBox="0 0 100 100" version="1.1" xmlns="http://www.w3.org/2000/svg" xmlns:xlink="http://www.w3.org/1999/xlink">
    <!-- Generator: Sketch 64 (93537) - https://sketch.com -->
    <title>user (5)</title>
    <desc>Created with Sketch.</desc>
    <g id="Landing" stroke="none" stroke-width="1" fill="none" fill-rule="evenodd">
        <g id="Artboard" fill="#329157" fill-rule="nonzero">
            <g id="user-(5)">
                <path d="M50,100 C38.1611328,100 26.6785156,95.7882812 17.6673828,88.1404297 C15.5515625,86.3458984 13.5667969,84.35625 11.76875,82.2273438 C4.17910156,73.23125 0,61.7865234 0,50 C0,36.6443359 5.20078125,24.0882813 14.6445312,14.6445312 C24.0882812,5.20078125 36.6443359,0 50,0 C63.3556641,0 75.9117188,5.20078125 85.3554688,14.6445312 C94.7992187,24.0882813 100,36.6443359 100,50 C100,61.7867188 95.8208984,73.2314453 88.2322266,82.2261719 C86.4332031,84.35625 84.4484375,86.3458984 82.3320312,88.1410156 C73.3214844,95.7882812 61.8388672,100 50,100 Z M50,6.25 C25.8761719,6.25 6.25,25.8761719 6.25,50 C6.25,60.3134766 9.90605469,70.3269531 16.5447266,78.1958984 C18.1189453,80.0597656 19.8574219,81.8025391 21.7109375,83.3748047 C29.5945313,90.0654297 39.6408203,93.75 50,93.75 C60.3591797,93.75 70.4054687,90.0654297 78.2884766,83.3751953 C80.1425781,81.8025391 81.8810547,80.0595703 83.45625,78.1945312 C90.0939453,70.3271484 93.75,60.3136719 93.75,50 C93.75,25.8761719 74.1238281,6.25 50,6.25 Z" id="Shape"></path>
                <path d="M50,50 C39.6611328,50 31.25,41.5888672 31.25,31.25 C31.25,20.9111328 39.6611328,12.5 50,12.5 C60.3388672,12.5 68.75,20.9111328 68.75,31.25 C68.75,41.5888672 60.3388672,50 50,50 Z M50,18.75 C43.1074219,18.75 37.5,24.3574219 37.5,31.25 C37.5,38.1425781 43.1074219,43.75 50,43.75 C56.8925781,43.75 62.5,38.1425781 62.5,31.25 C62.5,24.3574219 56.8925781,18.75 50,18.75 Z" id="Shape"></path>
                <path d="M80.3128906,88.8836211 C80.0609375,88.8836211 79.8050781,88.8529297 79.5496094,88.7888672 C77.8757812,88.36875 76.859375,86.6710937 77.2794922,84.9970703 C77.8404297,82.7621094 78.125,80.45 78.125,78.125 C78.125,62.8349609 65.6941406,50.2214844 50.4115234,50.0019531 L50,50 L49.5884766,50.0019531 C34.3058594,50.2214844 21.875,62.8349609 21.875,78.125 C21.875,80.45 22.1595703,82.7621094 22.7205078,84.9970703 C23.140625,86.6710937 22.1242187,88.36875 20.4503906,88.7888672 C18.7765625,89.2089844 17.0787109,88.1927734 16.6585937,86.51875 C15.9726562,83.7865234 15.625,80.9625 15.625,78.125 C15.625,69.0277344 19.1439453,60.4525391 25.5335937,53.9785156 C31.9169922,47.5109375 40.4330078,43.8792969 49.5128906,43.7523438 C49.5275391,43.7521484 49.5419922,43.7521484 49.5566406,43.7521484 L50,43.75 L50.4433594,43.7519531 C50.4580078,43.7519531 50.4724609,43.7519531 50.4871094,43.7521484 C59.5669922,43.8789062 68.0830078,47.5107422 74.4664062,53.9783203 C80.8560547,60.4525391 84.375,69.0277344 84.375,78.125 C84.375,80.9625 84.0273438,83.7865234 83.3414063,86.51875 C82.9853516,87.9371094 81.7119141,88.8836211 80.3128906,88.8836211 Z" id="Path"></path>
            </g>
        </g>
    </g>
</svg>