<svg width="24" height="24" viewBox="0 0 24 24" fill="none" xmlns="http://www.w3.org/2000/svg">
<path d="M12 24C18.6274 24 24 18.6274 24 12C24 5.37258 18.6274 0 12 0C5.37258 0 0 5.37258 0 12C0 18.6274 5.37258 24 12 24Z" fill="#56D188"/>
<path d="M11.5157 13.0326C12.8308 14.3477 14.2984 15.0214 14.7861 14.5335L15.4018 13.9178C15.5134 13.8062 15.6458 13.7176 15.7916 13.6573C15.9374 13.5969 16.0937 13.5658 16.2515 13.5658C16.4093 13.5658 16.5655 13.5969 16.7113 13.6573C16.8571 13.7176 16.9895 13.8062 17.1011 13.9178L18.4605 15.2771C18.6167 15.4333 18.7406 15.6188 18.8252 15.8229C18.9097 16.027 18.9533 16.2457 18.9533 16.4666C18.9533 16.6875 18.9097 16.9063 18.8252 17.1104C18.7406 17.3145 18.6167 17.4999 18.4605 17.6561L17.5042 18.6124C16.3196 19.797 12.7697 18.1678 9.57505 14.9732C7.97849 13.3751 6.77249 11.6891 6.11399 10.2542C5.45549 8.81925 5.34374 7.63575 5.93662 7.04325L6.89287 6.08701C7.04906 5.93078 7.23451 5.80685 7.4386 5.7223C7.6427 5.63776 7.86145 5.59424 8.08237 5.59424C8.30328 5.59424 8.52203 5.63776 8.72613 5.7223C8.93023 5.80685 9.11567 5.93078 9.27186 6.08701L10.6312 7.44638C10.7428 7.55795 10.8313 7.69041 10.8917 7.8362C10.9521 7.98198 10.9832 8.13824 10.9832 8.29604C10.9832 8.45384 10.9521 8.61009 10.8917 8.75587C10.8313 8.90166 10.7428 9.03412 10.6312 9.14569L10.0155 9.76144C9.52705 10.2499 10.2 11.7173 11.5157 13.0326Z" fill="white"/>
</svg>
