<svg width="109" height="109" viewBox="0 0 109 109" fill="none" xmlns="http://www.w3.org/2000/svg">
<g filter="url(#filter0_d)">
<rect x="12.5581" y="0.929688" width="67.5589" height="67.5589" rx="16" fill="#78ECB4"/>
<path d="M42.4451 29.6236C39.1558 32.3088 28.8852 32.3088 25.6631 29.6236C22.3738 26.9385 22.7095 15.4597 25.6631 12.4389C28.6167 9.41815 39.4914 9.41815 42.4451 12.4389C45.3987 15.4597 45.7343 26.9386 42.4451 29.6236Z" fill="#2BBA75"/>
<g opacity="0.8">
<path opacity="0.2" d="M34.1224 24.9253C31.1688 27.2748 27.8795 28.4831 24.7916 28.5502C22.5093 24.6568 22.9792 15.1918 25.6643 12.4395C28.0809 9.95583 35.6663 9.48591 40.0297 11.0298C41.1037 15.4603 38.8885 21.099 34.1224 24.9253Z" fill="white"/>
</g>
<path d="M32.51 26.8712C32.0401 26.8712 31.5702 26.6698 31.3017 26.2671L27.5425 21.4339C27.0055 20.7626 27.1398 19.8228 27.8111 19.2858C28.4823 18.7487 29.4221 18.883 29.9592 19.5543L32.51 22.8436L38.1487 15.5266C38.6858 14.8554 39.6256 14.7211 40.2968 15.2581C40.9681 15.7952 41.1024 16.7349 40.5653 17.4062L33.7183 26.2671C33.3827 26.6027 32.9799 26.8712 32.51 26.8712Z" fill="white"/>
<path d="M68.5469 29.6236C65.2576 32.3088 54.987 32.3088 51.7649 29.6236C48.4756 26.9385 48.8113 15.4597 51.7649 12.4389C54.7185 9.41815 65.5932 9.41815 68.5469 12.4389C71.5005 15.4597 71.8361 26.9386 68.5469 29.6236Z" fill="#EDEDED"/>
<path d="M60.2242 24.9251C57.2706 27.2745 53.9813 28.4828 50.8934 28.55C48.6111 24.6565 49.081 15.1915 51.7661 12.4393C54.1827 9.95558 61.7681 9.48567 66.1315 11.0296C67.2055 15.4601 64.9903 21.0988 60.2242 24.9251Z" fill="white"/>
<path d="M42.4446 55.7262C39.1553 58.4113 28.8848 58.4113 25.6626 55.7262C22.3733 53.0411 22.709 41.5622 25.6626 38.5414C28.6162 35.5207 39.4909 35.5207 42.4446 38.5414C45.3982 41.5622 45.7339 53.0411 42.4446 55.7262Z" fill="#EDEDED"/>
<path d="M34.1212 51.0274C31.1675 53.3768 27.8783 54.5851 24.7904 54.6523C22.508 50.7588 22.978 41.2938 25.6631 38.5416C28.0797 36.0579 35.6651 35.588 40.0285 37.1319C41.1025 41.5623 38.8873 47.2011 34.1212 51.0274Z" fill="white"/>
<path d="M68.5469 55.7262C65.2576 58.4113 54.987 58.4113 51.7649 55.7262C48.4756 53.0411 48.8113 41.5622 51.7649 38.5414C54.7185 35.5207 65.5932 35.5207 68.5469 38.5414C71.5005 41.5622 71.8361 53.0411 68.5469 55.7262Z" fill="#2BBA75"/>
<g opacity="0.8">
<path opacity="0.2" d="M60.2242 51.0274C57.2706 53.3768 53.9813 54.5851 50.8934 54.6523C48.6111 50.7588 49.081 41.2938 51.7661 38.5416C54.1827 36.0579 61.7681 35.588 66.1315 37.1319C67.2055 41.5623 64.9903 47.2011 60.2242 51.0274Z" fill="white"/>
</g>
<path d="M58.6118 52.9735C58.1419 52.9735 57.672 52.7721 57.4035 52.3694L53.6444 47.5362C53.1073 46.8649 53.2416 45.9251 53.9129 45.3881C54.5841 44.851 55.5239 44.9853 56.061 45.6566L58.6118 48.9459L64.2505 41.6289C64.7876 40.9577 65.7274 40.8234 66.3986 41.3604C67.0699 41.8975 67.2042 42.8372 66.6672 43.5085L59.8201 52.3694C59.4845 52.705 59.0817 52.9735 58.6118 52.9735Z" fill="white"/>
</g>
<defs>
<filter id="filter0_d" x="0.558105" y="0.929688" width="107.559" height="107.559" filterUnits="userSpaceOnUse" color-interpolation-filters="sRGB">
<feFlood flood-opacity="0" result="BackgroundImageFix"/>
<feColorMatrix in="SourceAlpha" type="matrix" values="0 0 0 0 0 0 0 0 0 0 0 0 0 0 0 0 0 0 127 0"/>
<feOffset dx="8" dy="20"/>
<feGaussianBlur stdDeviation="10"/>
<feColorMatrix type="matrix" values="0 0 0 0 0.216182 0 0 0 0 0.20816 0 0 0 0 0.454167 0 0 0 0.4 0"/>
<feBlend mode="normal" in2="BackgroundImageFix" result="effect1_dropShadow"/>
<feBlend mode="normal" in="SourceGraphic" in2="effect1_dropShadow" result="shape"/>
</filter>
</defs>
</svg>
