<?xml version="1.0" encoding="UTF-8"?>
<svg width="100px" height="100px" viewBox="0 0 100 100" version="1.1" xmlns="http://www.w3.org/2000/svg" xmlns:xlink="http://www.w3.org/1999/xlink">
    <!-- Generator: Sketch 64 (93537) - https://sketch.com -->
    <title>Artboard</title>
    <desc>Created with Sketch.</desc>
    <g id="Artboard" stroke="none" stroke-width="1" fill="none" fill-rule="evenodd">
        <path d="M50,100 C77.6142375,100 100,77.6142375 100,50 C100,22.3857625 77.6142375,0 50,0 C22.3857625,0 0,22.3857625 0,50 C0,77.6142375 22.3857625,100 50,100 L50,100 Z M50,4.16666667 C75.313051,4.16666667 95.8333333,24.686949 95.8333333,50 C95.8333333,75.313051 75.313051,95.8333333 50,95.8333333 C24.686949,95.8333333 4.16666667,75.313051 4.16666667,50 C4.16666667,24.686949 24.686949,4.16666667 50,4.16666667 Z M50,12.5 C48.8494068,12.5 47.9166667,13.4327401 47.9166667,14.5833333 L47.9166667,50 C47.9166667,50.5525344 48.1361601,51.0824383 48.5268609,51.4731391 L71.4435275,74.3898058 C72.2571198,75.2033981 73.5762135,75.2033981 74.3898058,74.3898058 C75.2033981,73.5762135 75.2033981,72.2571198 74.3898058,71.4435275 L52.083,49.136 L52.0833333,14.5833333 C52.0833333,13.4327401 51.1505932,12.5 50,12.5 Z M51.4731391,48.5268609 L52.083,49.136 L52.0833333,50 L51.4731391,48.5268609 Z" id="TIME" fill="#2A8D51" fill-rule="nonzero"></path>
    </g>
</svg>